<svg width="1297" height="172" viewBox="0 0 1297 172" fill="none" xmlns="http://www.w3.org/2000/svg">
<path d="M1281.5 16H1188.5C1184.39 16 1180.45 17.633 1177.54 20.5398C1174.63 23.4467 1173 27.3891 1173 31.5V124.5C1173 128.611 1174.63 132.553 1177.54 135.46C1180.45 138.367 1184.39 140 1188.5 140H1281.5C1285.61 140 1289.55 138.367 1292.46 135.46C1295.37 132.553 1297 128.611 1297 124.5V31.5C1297 27.3891 1295.37 23.4467 1292.46 20.5398C1289.55 17.633 1285.61 16 1281.5 16ZM1226.94 109.93C1226.94 111.903 1226.16 113.796 1224.76 115.191C1223.37 116.586 1221.47 117.37 1219.5 117.37H1196.56C1194.59 117.37 1192.69 116.586 1191.3 115.191C1189.9 113.796 1189.12 111.903 1189.12 109.93V39.56C1189.12 35.4473 1192.45 32.12 1196.56 32.12H1219.5C1223.61 32.12 1226.94 35.4473 1226.94 39.56V109.93ZM1280.88 78.93C1280.88 80.9032 1280.1 82.7956 1278.7 84.1909C1277.31 85.5861 1275.41 86.37 1273.44 86.37H1250.5C1248.53 86.37 1246.63 85.5861 1245.24 84.1909C1243.84 82.7956 1243.06 80.9032 1243.06 78.93V39.56C1243.06 35.4473 1246.39 32.12 1250.5 32.12H1273.44C1277.55 32.12 1280.88 35.4473 1280.88 39.56V78.93Z" fill="#E55175"/>
<path fill-rule="evenodd" clip-rule="evenodd" d="M907.702 4C869.744 4 839 34.7443 839 72.7023C839 103.103 858.666 128.781 885.975 137.884C889.41 138.485 890.699 136.424 890.699 134.62C890.699 132.989 890.613 127.578 890.613 121.825C873.351 125.002 868.886 117.617 867.511 113.752C866.739 111.777 863.389 105.679 860.469 104.048C858.065 102.76 854.63 99.5821 860.384 99.4963C865.794 99.4104 869.658 104.477 870.947 106.538C877.13 116.929 887.006 114.01 890.956 112.206C891.557 107.741 893.361 104.735 895.336 103.017C880.05 101.3 864.076 95.3741 864.076 69.0955C864.076 61.6241 866.739 55.4409 871.118 50.6317C870.431 48.9142 868.027 41.8722 871.805 32.4256C871.805 32.4256 877.559 30.6222 890.699 39.4676C896.195 37.9218 902.034 37.1489 907.874 37.1489C913.714 37.1489 919.554 37.9218 925.05 39.4676C938.189 30.5363 943.943 32.4256 943.943 32.4256C947.721 41.8722 945.317 48.9142 944.63 50.6317C949.01 55.4409 951.672 61.5382 951.672 69.0955C951.672 95.46 935.613 101.3 920.326 103.017C922.817 105.164 924.964 109.286 924.964 115.727C924.964 124.916 924.878 132.302 924.878 134.62C924.878 136.424 926.166 138.571 929.601 137.884C943.24 133.279 955.091 124.514 963.487 112.821C971.883 101.128 976.401 87.0971 976.405 72.7023C976.405 34.7443 945.66 4 907.702 4Z" fill="#E55175"/>
<path d="M551 67.9729C544.118 67.9729 538.514 73.5969 538.514 80.503C538.514 87.4091 544.118 93.0331 551 93.0331C557.882 93.0331 563.486 87.4091 563.486 80.503C563.486 73.5969 557.882 67.9729 551 67.9729ZM516.044 105.405L513.288 104.72C492.777 99.5045 481 90.6799 481 80.481C481 70.2822 492.782 61.4575 513.288 56.2418L516.044 55.5569L516.818 58.3009C518.899 65.488 521.559 72.4933 524.772 79.2473L525.363 80.481L524.772 81.7367C521.552 88.4879 518.892 95.4937 516.818 102.683L516.044 105.405ZM512.014 62.6429C496.426 67.0333 486.858 73.7769 486.858 80.481C486.858 87.1851 496.431 93.9024 512.014 98.3191C513.925 92.2281 516.231 86.2693 518.918 80.481C516.227 74.6944 513.921 68.7353 512.014 62.6429ZM585.956 105.405L585.182 102.661C583.105 95.48 580.445 88.4817 577.228 81.7367L576.638 80.481L577.228 79.2254C580.448 72.4742 583.108 65.4684 585.182 58.2789L585.956 55.5569L588.713 56.2418C609.223 61.4575 621 70.2822 621 80.481C621 90.6799 609.218 99.5045 588.713 104.72L585.956 105.405ZM583.082 80.481C585.778 86.2655 588.084 92.2249 589.986 98.3191C605.596 93.9068 615.142 87.1851 615.142 80.481C615.142 73.7769 605.569 67.0597 589.986 62.6429C588.071 68.7324 585.765 74.6909 583.082 80.481ZM511.966 62.621L511.192 59.877C505.426 39.4793 507.18 24.8462 516 19.7446C524.658 14.7352 538.536 20.6578 553.096 35.6597L555.077 37.6968L553.096 39.734C547.925 45.1325 543.201 50.944 538.969 57.1111L538.173 58.2306L536.803 58.3448C529.359 58.9344 521.975 60.1281 514.722 61.9141L511.966 62.621ZM523.039 23.8188C521.469 23.8188 520.078 24.1393 518.914 24.8242C513.126 28.1873 512.102 39.8481 516.088 55.5788C522.306 54.1828 528.61 53.1973 534.957 52.6285C538.611 47.4056 542.607 42.4321 546.918 37.7407C537.827 28.8458 529.213 23.8144 523.039 23.8144V23.8188ZM578.982 142.996C578.961 142.996 578.961 142.996 578.982 142.996C570.666 142.996 559.978 136.731 548.904 125.298L546.923 123.261L548.904 121.224C554.075 115.825 558.799 110.014 563.031 103.847L563.806 102.727L565.175 102.591C572.629 102.021 580.022 100.827 587.277 99.0216L590.034 98.3367L590.808 101.081C596.574 121.478 594.82 136.09 586 141.187C583.868 142.417 581.442 143.04 578.982 142.991V142.996ZM555.077 123.217C564.169 132.112 572.783 137.143 578.956 137.143H578.978C580.527 137.143 581.918 136.801 583.082 136.138C588.87 132.775 589.92 121.114 585.908 105.383C579.69 106.781 573.387 107.759 567.039 108.312C563.385 113.542 559.389 118.522 555.077 123.221V123.217ZM590.034 62.621L587.277 61.9141C580.017 60.1341 572.626 58.9404 565.175 58.3448L563.806 58.2306L563.031 57.1111C558.799 50.944 554.075 45.1325 548.904 39.734L546.923 37.6968L548.904 35.6597C563.464 20.6578 577.342 14.7352 586 19.7446C594.82 24.8418 596.574 39.4793 590.808 59.877L590.034 62.621ZM567.043 52.6285C573.391 53.1957 579.694 54.1813 585.912 55.5788C589.924 39.8481 588.874 28.1829 583.086 24.8242C577.32 21.4875 566.474 26.6067 555.082 37.7451C559.381 42.4466 563.377 47.4193 567.043 52.6329V52.6285ZM523.039 142.996C520.576 143.04 518.139 142.425 516 141.191C507.18 136.094 505.426 121.478 511.192 101.085L511.966 98.3411L514.722 99.026C521.469 100.743 528.897 101.928 536.803 102.595L538.173 102.731L538.947 103.851C543.179 110.018 547.903 115.83 553.074 121.228L555.056 123.265L553.074 125.302C542.023 136.735 531.334 143 523.039 143V142.996ZM516.092 105.383C512.08 121.114 513.13 132.779 518.918 136.138C524.684 139.431 535.508 134.355 546.923 123.217C542.611 118.518 538.615 113.537 534.961 108.307C528.613 107.756 522.309 106.778 516.092 105.379V105.383ZM551 109.062C546.192 109.062 541.27 108.856 536.326 108.443L534.957 108.329L534.161 107.188C531.368 103.161 528.745 99.0189 526.299 94.7717C523.847 90.5244 521.575 86.1755 519.487 81.7367L518.896 80.481L519.487 79.2254C523.669 70.3497 528.578 61.8369 534.161 53.7744L534.957 52.6329L536.326 52.5187C546.091 51.6933 555.909 51.6933 565.674 52.5187L567.043 52.6329L567.839 53.7744C573.43 61.8323 578.338 70.3457 582.513 79.2254L583.104 80.481L582.513 81.7367C578.346 90.6208 573.438 99.1348 567.839 107.188L567.043 108.329L565.674 108.443C560.793 108.853 555.898 109.06 551 109.062ZM538.194 102.705C546.809 103.368 555.191 103.368 563.827 102.705C568.644 95.6274 572.925 88.1971 576.633 80.4767C572.94 72.7435 568.651 65.3114 563.806 58.2482C555.281 57.5852 546.719 57.5852 538.194 58.2482C533.345 65.3092 529.056 72.7416 525.367 80.4767C529.077 88.2009 533.365 95.6317 538.194 102.705Z" fill="#E55175"/>
<path d="M329 19H450V140H329V19ZM440.093 111.149C439.208 105.613 435.601 100.985 424.949 96.6555C421.247 94.9237 417.111 93.7024 415.889 90.9043C415.436 89.2481 415.356 88.3443 415.651 87.3574C416.419 84.0867 420.26 83.1224 423.293 84.0299C425.263 84.6387 427.074 86.1361 428.216 88.5599C433.434 85.153 433.434 85.153 437.061 82.888C435.703 80.7818 435.034 79.8554 434.107 78.9706C430.935 75.4049 426.704 73.5937 419.829 73.7525L416.264 74.2063C412.857 75.0343 409.609 76.8456 407.639 79.2693C401.906 85.7693 403.562 97.1131 410.512 101.821C417.387 106.959 427.449 108.082 428.749 112.93C429.952 118.84 424.359 120.731 418.824 120.039C414.747 119.131 412.482 117.086 409.979 113.304L400.761 118.602C401.804 121.026 403.026 122.069 404.837 124.194C413.602 133.039 435.54 132.585 439.477 119.131C439.613 118.678 440.679 115.566 439.851 110.82L440.093 111.149ZM394.798 74.6146H383.473C383.473 84.3816 383.412 94.0918 383.412 103.882C383.412 110.087 383.726 115.796 382.724 117.551C381.049 121.018 376.776 120.583 374.825 119.975C372.836 118.991 371.811 117.63 370.65 115.66C370.314 115.127 370.08 114.677 370 114.677L360.804 120.349C362.339 123.521 364.585 126.259 367.482 127.991C371.796 130.57 377.585 131.398 383.65 130.04C387.59 128.898 390.997 126.554 392.767 122.931C395.346 118.243 394.794 112.495 394.775 106.052C394.835 95.6913 394.775 85.3345 394.775 74.8944L394.798 74.6146Z" fill="#E55175"/>
<path d="M164 20H269.401L259.816 128.23L216.589 140.461L173.598 128.223L164 20ZM249.779 42.1468L183.629 42.1333L184.695 55.289L235.516 55.3025L234.241 68.9375H200.909L202.117 81.8503H233.147L231.311 99.5353L216.704 103.572L201.874 99.5015L200.922 88.9108H187.828L189.286 108.263L216.704 116.802L243.67 109.127L249.779 42.1468Z" fill="#E55175"/>
<path d="M0 22L9.34918 129.89L51.3135 141.875L93.3848 129.874L102.75 22H0ZM82.4141 57.3203H33.1797L34.25 70.9668H81.3438L77.7288 111.475L51.375 118.992L24.9704 111.5L23.1562 90.7676H36.0695L36.9846 101.281L51.375 105.236L65.669 101.243L67.1621 84.0781H22.4766L19.1078 44.0511H83.5379L82.4141 57.3203Z" fill="#E55175"/>
<path d="M794.379 67.3079L733.69 6.62137C730.197 3.12621 724.528 3.12621 721.031 6.62137L708.429 19.2239L724.416 35.2108C728.131 33.9555 732.391 34.7976 735.352 37.759C738.327 40.7394 739.164 45.036 737.878 48.763L753.285 64.1706C757.012 62.8865 761.313 63.7172 764.29 66.6993C768.451 70.8585 768.451 77.5996 764.29 81.7615C760.128 85.924 753.387 85.924 749.223 81.7615C746.094 78.6285 745.32 74.0322 746.905 70.1765L732.537 55.8082L732.535 93.6196C733.577 94.1346 734.528 94.8149 735.352 95.6341C739.513 99.7933 739.513 106.535 735.352 110.7C731.19 114.86 724.446 114.86 720.29 110.7C716.129 106.535 716.129 99.7938 720.29 95.6346C721.287 94.637 722.472 93.8469 723.776 93.3101V55.1463C722.47 54.6131 721.285 53.8226 720.29 52.8218C717.138 49.6736 716.38 45.048 717.995 41.1771L702.236 25.416L660.623 67.0272C657.126 70.5256 657.126 76.1949 660.623 79.6906L721.312 140.378C724.806 143.874 730.474 143.874 733.972 140.378L794.378 79.9724C797.874 76.4756 797.874 70.8031 794.378 67.3079" fill="#E55175"/>
<path d="M1112.59 31.9949C1112.17 29.3877 1109.51 28.3087 1107.66 30.1781L1090.44 47.5406L1077.19 22.1139C1075.95 19.7357 1072.95 19.4866 1071.72 21.8715L1064.21 36.3L1046.12 1.76855C1044.63 -1.06129 1040.83 -0.339863 1040.34 2.82792L1023 114.742L1062.59 39.4376L1075.43 63.3638L1023.01 115.51L1069.55 141.753C1071 142.57 1072.63 143 1074.29 143C1075.95 143 1077.59 142.572 1079.04 141.755L1126 115.329L1112.59 31.9949Z" fill="#E55175"/>
<path d="M40.3633 167H36.8477V159.688H29.9922V167H26.4766V149.938H29.9922V156.852H36.8477V149.938H40.3633V167ZM55.9375 152.785H50.7109V167H47.1953V152.785H42.0391V149.938H55.9375V152.785ZM62.5469 149.938L66.9297 162.312L71.2891 149.938H75.9062V167H72.3789V162.336L72.7305 154.285L68.125 167H65.7109L61.1172 154.297L61.4688 162.336V167H57.9531V149.938H62.5469ZM82.4922 164.176H89.957V167H78.9766V149.938H82.4922V164.176ZM206.98 161.316C206.848 163.152 206.168 164.598 204.941 165.652C203.723 166.707 202.113 167.234 200.113 167.234C197.926 167.234 196.203 166.5 194.945 165.031C193.695 163.555 193.07 161.531 193.07 158.961V157.918C193.07 156.277 193.359 154.832 193.938 153.582C194.516 152.332 195.34 151.375 196.41 150.711C197.488 150.039 198.738 149.703 200.16 149.703C202.129 149.703 203.715 150.23 204.918 151.285C206.121 152.34 206.816 153.82 207.004 155.727H203.488C203.402 154.625 203.094 153.828 202.562 153.336C202.039 152.836 201.238 152.586 200.16 152.586C198.988 152.586 198.109 153.008 197.523 153.852C196.945 154.688 196.648 155.988 196.633 157.754V159.043C196.633 160.887 196.91 162.234 197.465 163.086C198.027 163.938 198.91 164.363 200.113 164.363C201.199 164.363 202.008 164.117 202.539 163.625C203.078 163.125 203.387 162.355 203.465 161.316H206.98ZM218.137 162.523C218.137 161.859 217.902 161.352 217.434 161C216.965 160.641 216.121 160.266 214.902 159.875C213.684 159.477 212.719 159.086 212.008 158.703C210.07 157.656 209.102 156.246 209.102 154.473C209.102 153.551 209.359 152.73 209.875 152.012C210.398 151.285 211.145 150.719 212.113 150.312C213.09 149.906 214.184 149.703 215.395 149.703C216.613 149.703 217.699 149.926 218.652 150.371C219.605 150.809 220.344 151.43 220.867 152.234C221.398 153.039 221.664 153.953 221.664 154.977H218.148C218.148 154.195 217.902 153.59 217.41 153.16C216.918 152.723 216.227 152.504 215.336 152.504C214.477 152.504 213.809 152.688 213.332 153.055C212.855 153.414 212.617 153.891 212.617 154.484C212.617 155.039 212.895 155.504 213.449 155.879C214.012 156.254 214.836 156.605 215.922 156.934C217.922 157.535 219.379 158.281 220.293 159.172C221.207 160.062 221.664 161.172 221.664 162.5C221.664 163.977 221.105 165.137 219.988 165.98C218.871 166.816 217.367 167.234 215.477 167.234C214.164 167.234 212.969 166.996 211.891 166.52C210.812 166.035 209.988 165.375 209.418 164.539C208.855 163.703 208.574 162.734 208.574 161.633H212.102C212.102 163.516 213.227 164.457 215.477 164.457C216.312 164.457 216.965 164.289 217.434 163.953C217.902 163.609 218.137 163.133 218.137 162.523ZM232.902 162.523C232.902 161.859 232.668 161.352 232.199 161C231.73 160.641 230.887 160.266 229.668 159.875C228.449 159.477 227.484 159.086 226.773 158.703C224.836 157.656 223.867 156.246 223.867 154.473C223.867 153.551 224.125 152.73 224.641 152.012C225.164 151.285 225.91 150.719 226.879 150.312C227.855 149.906 228.949 149.703 230.16 149.703C231.379 149.703 232.465 149.926 233.418 150.371C234.371 150.809 235.109 151.43 235.633 152.234C236.164 153.039 236.43 153.953 236.43 154.977H232.914C232.914 154.195 232.668 153.59 232.176 153.16C231.684 152.723 230.992 152.504 230.102 152.504C229.242 152.504 228.574 152.688 228.098 153.055C227.621 153.414 227.383 153.891 227.383 154.484C227.383 155.039 227.66 155.504 228.215 155.879C228.777 156.254 229.602 156.605 230.688 156.934C232.688 157.535 234.145 158.281 235.059 159.172C235.973 160.062 236.43 161.172 236.43 162.5C236.43 163.977 235.871 165.137 234.754 165.98C233.637 166.816 232.133 167.234 230.242 167.234C228.93 167.234 227.734 166.996 226.656 166.52C225.578 166.035 224.754 165.375 224.184 164.539C223.621 163.703 223.34 162.734 223.34 161.633H226.867C226.867 163.516 227.992 164.457 230.242 164.457C231.078 164.457 231.73 164.289 232.199 163.953C232.668 163.609 232.902 163.133 232.902 162.523ZM323.395 149.938H326.91V161.75C326.91 162.836 326.668 163.797 326.184 164.633C325.707 165.461 325.031 166.102 324.156 166.555C323.281 167.008 322.293 167.234 321.191 167.234C319.387 167.234 317.98 166.777 316.973 165.863C315.965 164.941 315.461 163.641 315.461 161.961H319C319 162.797 319.176 163.414 319.527 163.812C319.879 164.211 320.434 164.41 321.191 164.41C321.863 164.41 322.398 164.18 322.797 163.719C323.195 163.258 323.395 162.602 323.395 161.75V149.938ZM339.297 163.484H333.133L331.961 167H328.223L334.574 149.938H337.832L344.219 167H340.48L339.297 163.484ZM334.082 160.637H338.348L336.203 154.25L334.082 160.637ZM351.203 162.77L355.07 149.938H358.984L353.043 167H349.375L343.457 149.938H347.359L351.203 162.77ZM369.344 163.484H363.18L362.008 167H358.27L364.621 149.938H367.879L374.266 167H370.527L369.344 163.484ZM364.129 160.637H368.395L366.25 154.25L364.129 160.637ZM384.707 162.523C384.707 161.859 384.473 161.352 384.004 161C383.535 160.641 382.691 160.266 381.473 159.875C380.254 159.477 379.289 159.086 378.578 158.703C376.641 157.656 375.672 156.246 375.672 154.473C375.672 153.551 375.93 152.73 376.445 152.012C376.969 151.285 377.715 150.719 378.684 150.312C379.66 149.906 380.754 149.703 381.965 149.703C383.184 149.703 384.27 149.926 385.223 150.371C386.176 150.809 386.914 151.43 387.438 152.234C387.969 153.039 388.234 153.953 388.234 154.977H384.719C384.719 154.195 384.473 153.59 383.98 153.16C383.488 152.723 382.797 152.504 381.906 152.504C381.047 152.504 380.379 152.688 379.902 153.055C379.426 153.414 379.188 153.891 379.188 154.484C379.188 155.039 379.465 155.504 380.02 155.879C380.582 156.254 381.406 156.605 382.492 156.934C384.492 157.535 385.949 158.281 386.863 159.172C387.777 160.062 388.234 161.172 388.234 162.5C388.234 163.977 387.676 165.137 386.559 165.98C385.441 166.816 383.938 167.234 382.047 167.234C380.734 167.234 379.539 166.996 378.461 166.52C377.383 166.035 376.559 165.375 375.988 164.539C375.426 163.703 375.145 162.734 375.145 161.633H378.672C378.672 163.516 379.797 164.457 382.047 164.457C382.883 164.457 383.535 164.289 384.004 163.953C384.473 163.609 384.707 163.133 384.707 162.523ZM404.02 161.316C403.887 163.152 403.207 164.598 401.98 165.652C400.762 166.707 399.152 167.234 397.152 167.234C394.965 167.234 393.242 166.5 391.984 165.031C390.734 163.555 390.109 161.531 390.109 158.961V157.918C390.109 156.277 390.398 154.832 390.977 153.582C391.555 152.332 392.379 151.375 393.449 150.711C394.527 150.039 395.777 149.703 397.199 149.703C399.168 149.703 400.754 150.23 401.957 151.285C403.16 152.34 403.855 153.82 404.043 155.727H400.527C400.441 154.625 400.133 153.828 399.602 153.336C399.078 152.836 398.277 152.586 397.199 152.586C396.027 152.586 395.148 153.008 394.562 153.852C393.984 154.688 393.688 155.988 393.672 157.754V159.043C393.672 160.887 393.949 162.234 394.504 163.086C395.066 163.938 395.949 164.363 397.152 164.363C398.238 164.363 399.047 164.117 399.578 163.625C400.117 163.125 400.426 162.355 400.504 161.316H404.02ZM412.645 160.754H409.844V167H406.328V149.938H412.668C414.684 149.938 416.238 150.387 417.332 151.285C418.426 152.184 418.973 153.453 418.973 155.094C418.973 156.258 418.719 157.23 418.211 158.012C417.711 158.785 416.949 159.402 415.926 159.863L419.617 166.836V167H415.844L412.645 160.754ZM409.844 157.906H412.68C413.562 157.906 414.246 157.684 414.73 157.238C415.215 156.785 415.457 156.164 415.457 155.375C415.457 154.57 415.227 153.938 414.766 153.477C414.312 153.016 413.613 152.785 412.668 152.785H409.844V157.906ZM425.395 167H421.879V149.938H425.395V167ZM432.18 160.988V167H428.664V149.938H435.32C436.602 149.938 437.727 150.172 438.695 150.641C439.672 151.109 440.422 151.777 440.945 152.645C441.469 153.504 441.73 154.484 441.73 155.586C441.73 157.258 441.156 158.578 440.008 159.547C438.867 160.508 437.285 160.988 435.262 160.988H432.18ZM432.18 158.141H435.32C436.25 158.141 436.957 157.922 437.441 157.484C437.934 157.047 438.18 156.422 438.18 155.609C438.18 154.773 437.934 154.098 437.441 153.582C436.949 153.066 436.27 152.801 435.402 152.785H432.18V158.141ZM457 152.785H451.773V167H448.258V152.785H443.102V149.938H457V152.785ZM518.418 160.754H515.617V167H512.102V149.938H518.441C520.457 149.938 522.012 150.387 523.105 151.285C524.199 152.184 524.746 153.453 524.746 155.094C524.746 156.258 524.492 157.23 523.984 158.012C523.484 158.785 522.723 159.402 521.699 159.863L525.391 166.836V167H521.617L518.418 160.754ZM515.617 157.906H518.453C519.336 157.906 520.02 157.684 520.504 157.238C520.988 156.785 521.23 156.164 521.23 155.375C521.23 154.57 521 153.938 520.539 153.477C520.086 153.016 519.387 152.785 518.441 152.785H515.617V157.906ZM537.695 159.605H530.945V164.176H538.867V167H527.43V149.938H538.844V152.785H530.945V156.852H537.695V159.605ZM550.562 163.484H544.398L543.227 167H539.488L545.84 149.938H549.098L555.484 167H551.746L550.562 163.484ZM545.348 160.637H549.613L547.469 154.25L545.348 160.637ZM570.215 161.316C570.082 163.152 569.402 164.598 568.176 165.652C566.957 166.707 565.348 167.234 563.348 167.234C561.16 167.234 559.438 166.5 558.18 165.031C556.93 163.555 556.305 161.531 556.305 158.961V157.918C556.305 156.277 556.594 154.832 557.172 153.582C557.75 152.332 558.574 151.375 559.645 150.711C560.723 150.039 561.973 149.703 563.395 149.703C565.363 149.703 566.949 150.23 568.152 151.285C569.355 152.34 570.051 153.82 570.238 155.727H566.723C566.637 154.625 566.328 153.828 565.797 153.336C565.273 152.836 564.473 152.586 563.395 152.586C562.223 152.586 561.344 153.008 560.758 153.852C560.18 154.688 559.883 155.988 559.867 157.754V159.043C559.867 160.887 560.145 162.234 560.699 163.086C561.262 163.938 562.145 164.363 563.348 164.363C564.434 164.363 565.242 164.117 565.773 163.625C566.312 163.125 566.621 162.355 566.699 161.316H570.215ZM585.016 152.785H579.789V167H576.273V152.785H571.117V149.938H585.016V152.785ZM719.359 164.844C718.727 165.602 717.832 166.191 716.676 166.613C715.52 167.027 714.238 167.234 712.832 167.234C711.355 167.234 710.059 166.914 708.941 166.273C707.832 165.625 706.973 164.688 706.363 163.461C705.762 162.234 705.453 160.793 705.438 159.137V157.977C705.438 156.273 705.723 154.801 706.293 153.559C706.871 152.309 707.699 151.355 708.777 150.699C709.863 150.035 711.133 149.703 712.586 149.703C714.609 149.703 716.191 150.188 717.332 151.156C718.473 152.117 719.148 153.52 719.359 155.363H715.938C715.781 154.387 715.434 153.672 714.895 153.219C714.363 152.766 713.629 152.539 712.691 152.539C711.496 152.539 710.586 152.988 709.961 153.887C709.336 154.785 709.02 156.121 709.012 157.895V158.984C709.012 160.773 709.352 162.125 710.031 163.039C710.711 163.953 711.707 164.41 713.02 164.41C714.34 164.41 715.281 164.129 715.844 163.566V160.625H712.645V158.035H719.359V164.844ZM725.957 167H722.441V149.938H725.957V167ZM741.719 152.785H736.492V167H732.977V152.785H727.82V149.938H741.719V152.785ZM876.062 164.844C875.43 165.602 874.535 166.191 873.379 166.613C872.223 167.027 870.941 167.234 869.535 167.234C868.059 167.234 866.762 166.914 865.645 166.273C864.535 165.625 863.676 164.688 863.066 163.461C862.465 162.234 862.156 160.793 862.141 159.137V157.977C862.141 156.273 862.426 154.801 862.996 153.559C863.574 152.309 864.402 151.355 865.48 150.699C866.566 150.035 867.836 149.703 869.289 149.703C871.312 149.703 872.895 150.188 874.035 151.156C875.176 152.117 875.852 153.52 876.062 155.363H872.641C872.484 154.387 872.137 153.672 871.598 153.219C871.066 152.766 870.332 152.539 869.395 152.539C868.199 152.539 867.289 152.988 866.664 153.887C866.039 154.785 865.723 156.121 865.715 157.895V158.984C865.715 160.773 866.055 162.125 866.734 163.039C867.414 163.953 868.41 164.41 869.723 164.41C871.043 164.41 871.984 164.129 872.547 163.566V160.625H869.348V158.035H876.062V164.844ZM882.66 167H879.145V149.938H882.66V167ZM898.422 152.785H893.195V167H889.68V152.785H884.523V149.938H898.422V152.785ZM914.324 167H910.809V159.688H903.953V167H900.438V149.938H903.953V156.852H910.809V149.938H914.324V167ZM930.32 149.938V161.176C930.32 163.043 929.734 164.52 928.562 165.605C927.398 166.691 925.805 167.234 923.781 167.234C921.789 167.234 920.207 166.707 919.035 165.652C917.863 164.598 917.266 163.148 917.242 161.305V149.938H920.758V161.199C920.758 162.316 921.023 163.133 921.555 163.648C922.094 164.156 922.836 164.41 923.781 164.41C925.758 164.41 926.762 163.371 926.793 161.293V149.938H930.32ZM933.203 167V149.938H939.18C941.25 149.938 942.82 150.336 943.891 151.133C944.961 151.922 945.496 153.082 945.496 154.613C945.496 155.449 945.281 156.188 944.852 156.828C944.422 157.461 943.824 157.926 943.059 158.223C943.934 158.441 944.621 158.883 945.121 159.547C945.629 160.211 945.883 161.023 945.883 161.984C945.883 163.625 945.359 164.867 944.312 165.711C943.266 166.555 941.773 166.984 939.836 167H933.203ZM936.719 159.57V164.176H939.73C940.559 164.176 941.203 163.98 941.664 163.59C942.133 163.191 942.367 162.645 942.367 161.949C942.367 160.387 941.559 159.594 939.941 159.57H936.719ZM936.719 157.086H939.32C941.094 157.055 941.98 156.348 941.98 154.965C941.98 154.191 941.754 153.637 941.301 153.301C940.855 152.957 940.148 152.785 939.18 152.785H936.719V157.086ZM1030.52 160.027H1023.77V167H1020.25V149.938H1031.36V152.785H1023.77V157.191H1030.52V160.027ZM1037.14 167H1033.62V149.938H1037.14V167ZM1046.72 160.754H1043.92V167H1040.41V149.938H1046.75C1048.76 149.938 1050.32 150.387 1051.41 151.285C1052.5 152.184 1053.05 153.453 1053.05 155.094C1053.05 156.258 1052.8 157.23 1052.29 158.012C1051.79 158.785 1051.03 159.402 1050 159.863L1053.7 166.836V167H1049.92L1046.72 160.754ZM1043.92 157.906H1046.76C1047.64 157.906 1048.32 157.684 1048.81 157.238C1049.29 156.785 1049.54 156.164 1049.54 155.375C1049.54 154.57 1049.3 153.938 1048.84 153.477C1048.39 153.016 1047.69 152.785 1046.75 152.785H1043.92V157.906ZM1066 159.605H1059.25V164.176H1067.17V167H1055.73V149.938H1067.15V152.785H1059.25V156.852H1066V159.605ZM1069.23 167V149.938H1075.21C1077.28 149.938 1078.85 150.336 1079.92 151.133C1080.99 151.922 1081.53 153.082 1081.53 154.613C1081.53 155.449 1081.31 156.188 1080.88 156.828C1080.45 157.461 1079.86 157.926 1079.09 158.223C1079.96 158.441 1080.65 158.883 1081.15 159.547C1081.66 160.211 1081.91 161.023 1081.91 161.984C1081.91 163.625 1081.39 164.867 1080.34 165.711C1079.3 166.555 1077.8 166.984 1075.87 167H1069.23ZM1072.75 159.57V164.176H1075.76C1076.59 164.176 1077.23 163.98 1077.7 163.59C1078.16 163.191 1078.4 162.645 1078.4 161.949C1078.4 160.387 1077.59 159.594 1075.97 159.57H1072.75ZM1072.75 157.086H1075.35C1077.12 157.055 1078.01 156.348 1078.01 154.965C1078.01 154.191 1077.79 153.637 1077.33 153.301C1076.89 152.957 1076.18 152.785 1075.21 152.785H1072.75V157.086ZM1094.2 163.484H1088.03L1086.86 167H1083.12L1089.47 149.938H1092.73L1099.12 167H1095.38L1094.2 163.484ZM1088.98 160.637H1093.25L1091.1 154.25L1088.98 160.637ZM1109.56 162.523C1109.56 161.859 1109.32 161.352 1108.86 161C1108.39 160.641 1107.54 160.266 1106.32 159.875C1105.11 159.477 1104.14 159.086 1103.43 158.703C1101.49 157.656 1100.52 156.246 1100.52 154.473C1100.52 153.551 1100.78 152.73 1101.3 152.012C1101.82 151.285 1102.57 150.719 1103.54 150.312C1104.51 149.906 1105.61 149.703 1106.82 149.703C1108.04 149.703 1109.12 149.926 1110.07 150.371C1111.03 150.809 1111.77 151.43 1112.29 152.234C1112.82 153.039 1113.09 153.953 1113.09 154.977H1109.57C1109.57 154.195 1109.32 153.59 1108.83 153.16C1108.34 152.723 1107.65 152.504 1106.76 152.504C1105.9 152.504 1105.23 152.688 1104.75 153.055C1104.28 153.414 1104.04 153.891 1104.04 154.484C1104.04 155.039 1104.32 155.504 1104.87 155.879C1105.43 156.254 1106.26 156.605 1107.34 156.934C1109.34 157.535 1110.8 158.281 1111.71 159.172C1112.63 160.062 1113.09 161.172 1113.09 162.5C1113.09 163.977 1112.53 165.137 1111.41 165.98C1110.29 166.816 1108.79 167.234 1106.9 167.234C1105.59 167.234 1104.39 166.996 1103.31 166.52C1102.23 166.035 1101.41 165.375 1100.84 164.539C1100.28 163.703 1100 162.734 1100 161.633H1103.52C1103.52 163.516 1104.65 164.457 1106.9 164.457C1107.73 164.457 1108.39 164.289 1108.86 163.953C1109.32 163.609 1109.56 163.133 1109.56 162.523ZM1125.74 159.605H1118.99V164.176H1126.91V167H1115.48V149.938H1126.89V152.785H1118.99V156.852H1125.74V159.605ZM1206.86 152.785H1201.63V167H1198.12V152.785H1192.96V149.938H1206.86V152.785ZM1215.19 160.754H1212.39V167H1208.88V149.938H1215.21C1217.23 149.938 1218.79 150.387 1219.88 151.285C1220.97 152.184 1221.52 153.453 1221.52 155.094C1221.52 156.258 1221.27 157.23 1220.76 158.012C1220.26 158.785 1219.5 159.402 1218.47 159.863L1222.16 166.836V167H1218.39L1215.19 160.754ZM1212.39 157.906H1215.23C1216.11 157.906 1216.79 157.684 1217.28 157.238C1217.76 156.785 1218 156.164 1218 155.375C1218 154.57 1217.77 153.938 1217.31 153.477C1216.86 153.016 1216.16 152.785 1215.21 152.785H1212.39V157.906ZM1234.47 159.605H1227.72V164.176H1235.64V167H1224.2V149.938H1235.62V152.785H1227.72V156.852H1234.47V159.605ZM1241.22 164.176H1248.68V167H1237.7V149.938H1241.22V164.176ZM1254.23 164.176H1261.69V167H1250.71V149.938H1254.23V164.176ZM1276.98 158.855C1276.98 160.535 1276.69 162.008 1276.09 163.273C1275.5 164.539 1274.65 165.516 1273.54 166.203C1272.44 166.891 1271.17 167.234 1269.74 167.234C1268.33 167.234 1267.07 166.895 1265.96 166.215C1264.85 165.535 1263.99 164.566 1263.38 163.309C1262.77 162.043 1262.46 160.59 1262.45 158.949V158.105C1262.45 156.426 1262.75 154.949 1263.36 153.676C1263.96 152.395 1264.82 151.414 1265.92 150.734C1267.03 150.047 1268.3 149.703 1269.72 149.703C1271.14 149.703 1272.4 150.047 1273.5 150.734C1274.61 151.414 1275.47 152.395 1276.07 153.676C1276.68 154.949 1276.98 156.422 1276.98 158.094V158.855ZM1273.42 158.082C1273.42 156.293 1273.1 154.934 1272.46 154.004C1271.82 153.074 1270.91 152.609 1269.72 152.609C1268.54 152.609 1267.63 153.07 1266.99 153.992C1266.35 154.906 1266.02 156.25 1266.02 158.023V158.855C1266.02 160.598 1266.34 161.949 1266.98 162.91C1267.62 163.871 1268.54 164.352 1269.74 164.352C1270.92 164.352 1271.83 163.891 1272.46 162.969C1273.09 162.039 1273.41 160.688 1273.42 158.914V158.082Z" fill="#C4174F"/>
</svg>
