<svg width="457" height="542" viewBox="0 0 457 542" fill="none" xmlns="http://www.w3.org/2000/svg">
<path d="M13 0L22.3492 107.89L64.3135 119.875L106.385 107.874L115.75 0H13ZM95.4141 35.3203H46.1797L47.25 48.9668H94.3438L90.7288 89.4755L64.375 96.9917L37.9704 89.4995L36.1562 68.7676H49.0695L49.9846 79.2807L64.375 83.2355L78.669 79.2433L80.1621 62.0781H35.4766L32.1078 22.0511H96.5379L95.4141 35.3203Z" fill="#E55175"/>
<path d="M46.4102 145H42.8945V137.688H36.0391V145H32.5234V127.938H36.0391V134.852H42.8945V127.938H46.4102V145ZM61.9844 130.785H56.7578V145H53.2422V130.785H48.0859V127.938H61.9844V130.785ZM68.5938 127.938L72.9766 140.312L77.3359 127.938H81.9531V145H78.4258V140.336L78.7773 132.285L74.1719 145H71.7578L67.1641 132.297L67.5156 140.336V145H64V127.938H68.5938ZM88.5391 142.176H96.0039V145H85.0234V127.938H88.5391V142.176Z" fill="#C4174F"/>
<path d="M70 247.973C63.1181 247.973 57.5137 253.597 57.5137 260.503C57.5137 267.409 63.1181 273.033 70 273.033C76.8819 273.033 82.4863 267.409 82.4863 260.503C82.4863 253.597 76.8819 247.973 70 247.973ZM35.0438 285.405L32.2875 284.72C11.7775 279.505 0 270.68 0 260.481C0 250.282 11.7819 241.458 32.2875 236.242L35.0438 235.557L35.8181 238.301C37.8988 245.488 40.5588 252.493 43.7719 259.247L44.3625 260.481L43.7719 261.737C40.5521 268.488 37.8918 275.494 35.8181 282.683L35.0438 285.405ZM31.0144 242.643C15.4263 247.033 5.85812 253.777 5.85812 260.481C5.85812 267.185 15.4306 273.902 31.0144 278.319C32.9247 272.228 35.2309 266.269 37.9181 260.481C35.2272 254.694 32.9209 248.735 31.0144 242.643ZM104.956 285.405L104.182 282.661C102.105 275.48 99.4447 268.482 96.2281 261.737L95.6375 260.481L96.2281 259.225C99.4479 252.474 102.108 245.468 104.182 238.279L104.956 235.557L107.713 236.242C128.223 241.458 140 250.282 140 260.481C140 270.68 128.218 279.505 107.713 284.72L104.956 285.405ZM102.082 260.481C104.778 266.265 107.084 272.225 108.986 278.319C124.596 273.907 134.142 267.185 134.142 260.481C134.142 253.777 124.569 247.06 108.986 242.643C107.071 248.732 104.765 254.691 102.082 260.481ZM30.9662 242.621L30.1919 239.877C24.4256 219.479 26.18 204.846 35 199.745C43.6581 194.735 57.5356 200.658 72.0956 215.66L74.0775 217.697L72.0956 219.734C66.925 225.132 62.2005 230.944 57.9688 237.111L57.1725 238.231L55.8031 238.345C48.359 238.934 40.9746 240.128 33.7225 241.914L30.9662 242.621ZM42.0394 203.819C40.4688 203.819 39.0775 204.139 37.9137 204.824C32.1256 208.187 31.1019 219.848 35.0875 235.579C41.3063 234.183 47.6096 233.197 53.9569 232.628C57.6111 227.406 61.607 222.432 65.9181 217.741C56.8269 208.846 48.2125 203.814 42.0394 203.814V203.819ZM97.9825 322.996C97.9606 322.996 97.9606 322.996 97.9825 322.996C89.6656 322.996 78.9775 316.731 67.9044 305.298L65.9225 303.261L67.9044 301.224C73.075 295.825 77.7995 290.014 82.0312 283.847L82.8056 282.727L84.175 282.591C91.6287 282.021 99.0219 280.827 106.277 279.022L109.034 278.337L109.808 281.081C115.574 301.478 113.82 316.09 105 321.187C102.868 322.417 100.442 323.04 97.9825 322.991V322.996ZM74.0775 303.217C83.1687 312.112 91.7831 317.143 97.9562 317.143H97.9781C99.5269 317.143 100.918 316.801 102.082 316.138C107.87 312.775 108.92 301.114 104.908 285.383C98.6905 286.781 92.3866 287.759 86.0387 288.312C82.3847 293.542 78.3888 298.522 74.0775 303.221V303.217ZM109.034 242.621L106.277 241.914C99.0168 240.134 91.6256 238.94 84.175 238.345L82.8056 238.231L82.0312 237.111C77.7995 230.944 73.075 225.132 67.9044 219.734L65.9225 217.697L67.9044 215.66C82.4644 200.658 96.3419 194.735 105 199.745C113.82 204.842 115.574 219.479 109.808 239.877L109.034 242.621ZM86.0431 232.628C92.3906 233.196 98.694 234.181 104.912 235.579C108.924 219.848 107.874 208.183 102.086 204.824C96.32 201.488 85.4744 206.607 74.0819 217.745C78.3814 222.447 82.3766 227.419 86.0431 232.633V232.628ZM42.0394 322.996C39.5763 323.04 37.1394 322.425 35 321.191C26.18 316.094 24.4256 301.478 30.1919 281.085L30.9662 278.341L33.7225 279.026C40.4688 280.743 47.8975 281.928 55.8031 282.595L57.1725 282.731L57.9469 283.851C62.1786 290.018 66.9032 295.83 72.0738 301.228L74.0556 303.265L72.0738 305.302C61.0225 316.735 50.3344 323 42.0394 323V322.996ZM35.0919 285.383C31.08 301.114 32.13 312.779 37.9181 316.138C43.6844 319.431 54.5081 314.355 65.9225 303.217C61.6112 298.518 57.6153 293.537 53.9613 288.307C47.6132 287.756 41.3092 286.778 35.0919 285.379V285.383ZM70 289.062C65.1919 289.062 60.27 288.856 55.3262 288.443L53.9569 288.329L53.1606 287.188C50.3681 283.161 47.7452 279.019 45.2988 274.772C42.8472 270.524 40.5746 266.176 38.4869 261.737L37.8962 260.481L38.4869 259.225C42.6695 250.35 47.5775 241.837 53.1606 233.774L53.9569 232.633L55.3262 232.519C65.0915 231.693 74.9085 231.693 84.6738 232.519L86.0431 232.633L86.8394 233.774C92.4297 241.832 97.3381 250.346 101.513 259.225L102.104 260.481L101.513 261.737C97.3464 270.621 92.4377 279.135 86.8394 287.188L86.0431 288.329L84.6738 288.443C79.7931 288.853 74.8977 289.06 70 289.062ZM57.1944 282.705C65.8087 283.368 74.1912 283.368 82.8275 282.705C87.644 275.627 91.9245 268.197 95.6331 260.477C91.9402 252.743 87.6513 245.311 82.8056 238.248C74.2813 237.585 65.7187 237.585 57.1944 238.248C52.3452 245.309 48.0562 252.742 44.3669 260.477C48.0765 268.201 52.3647 275.632 57.1944 282.705Z" fill="#E55175"/>
<path d="M40.8398 339.754H38.0391V346H34.5234V328.938H40.8633C42.8789 328.938 44.4336 329.387 45.5273 330.285C46.6211 331.184 47.168 332.453 47.168 334.094C47.168 335.258 46.9141 336.23 46.4062 337.012C45.9062 337.785 45.1445 338.402 44.1211 338.863L47.8125 345.836V346H44.0391L40.8398 339.754ZM38.0391 336.906H40.875C41.7578 336.906 42.4414 336.684 42.9258 336.238C43.4102 335.785 43.6523 335.164 43.6523 334.375C43.6523 333.57 43.4219 332.938 42.9609 332.477C42.5078 332.016 41.8086 331.785 40.8633 331.785H38.0391V336.906ZM60.1172 338.605H53.3672V343.176H61.2891V346H49.8516V328.938H61.2656V331.785H53.3672V335.852H60.1172V338.605ZM72.9844 342.484H66.8203L65.6484 346H61.9102L68.2617 328.938H71.5195L77.9062 346H74.168L72.9844 342.484ZM67.7695 339.637H72.0352L69.8906 333.25L67.7695 339.637ZM92.6367 340.316C92.5039 342.152 91.8242 343.598 90.5977 344.652C89.3789 345.707 87.7695 346.234 85.7695 346.234C83.582 346.234 81.8594 345.5 80.6016 344.031C79.3516 342.555 78.7266 340.531 78.7266 337.961V336.918C78.7266 335.277 79.0156 333.832 79.5938 332.582C80.1719 331.332 80.9961 330.375 82.0664 329.711C83.1445 329.039 84.3945 328.703 85.8164 328.703C87.7852 328.703 89.3711 329.23 90.5742 330.285C91.7773 331.34 92.4727 332.82 92.6602 334.727H89.1445C89.0586 333.625 88.75 332.828 88.2188 332.336C87.6953 331.836 86.8945 331.586 85.8164 331.586C84.6445 331.586 83.7656 332.008 83.1797 332.852C82.6016 333.688 82.3047 334.988 82.2891 336.754V338.043C82.2891 339.887 82.5664 341.234 83.1211 342.086C83.6836 342.938 84.5664 343.363 85.7695 343.363C86.8555 343.363 87.6641 343.117 88.1953 342.625C88.7344 342.125 89.043 341.355 89.1211 340.316H92.6367ZM107.438 331.785H102.211V346H98.6953V331.785H93.5391V328.938H107.438V331.785Z" fill="#C4174F"/>
<path d="M282.605 255.843L227.156 200.395C223.964 197.202 218.785 197.202 215.59 200.395L204.075 211.91L218.682 226.516C222.076 225.369 225.968 226.139 228.674 228.845C231.393 231.568 232.157 235.493 230.982 238.899L245.059 252.976C248.464 251.803 252.394 252.562 255.114 255.286C258.916 259.087 258.916 265.246 255.114 269.048C251.311 272.851 245.152 272.851 241.348 269.048C238.488 266.186 237.782 261.986 239.23 258.463L226.102 245.336L226.1 279.883C227.052 280.353 227.921 280.975 228.674 281.723C232.476 285.523 232.476 291.683 228.674 295.489C224.872 299.29 218.71 299.29 214.912 295.489C211.111 291.683 211.111 285.524 214.912 281.724C215.824 280.812 216.906 280.09 218.098 279.6V244.731C216.904 244.244 215.821 243.521 214.912 242.607C212.032 239.731 211.34 235.504 212.815 231.968L198.417 217.567L160.396 255.586C157.201 258.782 157.201 263.962 160.396 267.156L215.847 322.605C219.039 325.798 224.217 325.798 227.414 322.605L282.605 267.414C285.798 264.219 285.798 259.036 282.605 255.843" fill="#E55175"/>
<path d="M217 346.844C216.367 347.602 215.473 348.191 214.316 348.613C213.16 349.027 211.879 349.234 210.473 349.234C208.996 349.234 207.699 348.914 206.582 348.273C205.473 347.625 204.613 346.688 204.004 345.461C203.402 344.234 203.094 342.793 203.078 341.137V339.977C203.078 338.273 203.363 336.801 203.934 335.559C204.512 334.309 205.34 333.355 206.418 332.699C207.504 332.035 208.773 331.703 210.227 331.703C212.25 331.703 213.832 332.188 214.973 333.156C216.113 334.117 216.789 335.52 217 337.363H213.578C213.422 336.387 213.074 335.672 212.535 335.219C212.004 334.766 211.27 334.539 210.332 334.539C209.137 334.539 208.227 334.988 207.602 335.887C206.977 336.785 206.66 338.121 206.652 339.895V340.984C206.652 342.773 206.992 344.125 207.672 345.039C208.352 345.953 209.348 346.41 210.66 346.41C211.98 346.41 212.922 346.129 213.484 345.566V342.625H210.285V340.035H217V346.844ZM223.598 349H220.082V331.938H223.598V349ZM239.359 334.785H234.133V349H230.617V334.785H225.461V331.938H239.359V334.785Z" fill="#C4174F"/>
<path fill-rule="evenodd" clip-rule="evenodd" d="M392.089 200C356.68 200 328 228.68 328 264.089C328 292.448 346.345 316.401 371.821 324.893C375.025 325.453 376.227 323.531 376.227 321.848C376.227 320.326 376.147 315.279 376.147 309.912C360.044 312.876 355.879 305.986 354.597 302.381C353.876 300.539 350.751 294.851 348.028 293.329C345.785 292.127 342.58 289.163 347.948 289.083C352.995 289.003 356.6 293.729 357.801 295.652C363.569 305.346 372.782 302.622 376.467 300.939C377.028 296.774 378.71 293.97 380.553 292.368C366.293 290.765 351.392 285.238 351.392 260.724C351.392 253.754 353.876 247.986 357.961 243.5C357.321 241.898 355.077 235.329 358.602 226.517C358.602 226.517 363.97 224.834 376.227 233.086C381.354 231.644 386.801 230.923 392.249 230.923C397.696 230.923 403.144 231.644 408.271 233.086C420.528 224.754 425.895 226.517 425.895 226.517C429.42 235.329 427.177 241.898 426.536 243.5C430.622 247.986 433.105 253.674 433.105 260.724C433.105 285.318 418.124 290.765 403.865 292.368C406.188 294.37 408.191 298.216 408.191 304.224C408.191 312.796 408.111 319.685 408.111 321.848C408.111 323.531 409.312 325.533 412.517 324.893C425.239 320.597 436.295 312.42 444.127 301.513C451.959 290.605 456.173 277.517 456.177 264.089C456.177 228.68 427.497 200 392.089 200Z" fill="#E55175"/>
<path d="M362.796 346.844C362.163 347.602 361.269 348.191 360.112 348.613C358.956 349.027 357.675 349.234 356.269 349.234C354.792 349.234 353.495 348.914 352.378 348.273C351.269 347.625 350.409 346.688 349.8 345.461C349.198 344.234 348.89 342.793 348.874 341.137V339.977C348.874 338.273 349.159 336.801 349.729 335.559C350.308 334.309 351.136 333.355 352.214 332.699C353.3 332.035 354.569 331.703 356.022 331.703C358.046 331.703 359.628 332.188 360.769 333.156C361.909 334.117 362.585 335.52 362.796 337.363H359.374C359.218 336.387 358.87 335.672 358.331 335.219C357.8 334.766 357.065 334.539 356.128 334.539C354.933 334.539 354.022 334.988 353.397 335.887C352.772 336.785 352.456 338.121 352.448 339.895V340.984C352.448 342.773 352.788 344.125 353.468 345.039C354.147 345.953 355.144 346.41 356.456 346.41C357.776 346.41 358.718 346.129 359.28 345.566V342.625H356.081V340.035H362.796V346.844ZM369.394 349H365.878V331.938H369.394V349ZM385.155 334.785H379.929V349H376.413V334.785H371.257V331.938H385.155V334.785ZM401.058 349H397.542V341.688H390.687V349H387.171V331.938H390.687V338.852H397.542V331.938H401.058V349ZM417.054 331.938V343.176C417.054 345.043 416.468 346.52 415.296 347.605C414.132 348.691 412.538 349.234 410.515 349.234C408.522 349.234 406.94 348.707 405.769 347.652C404.597 346.598 403.999 345.148 403.976 343.305V331.938H407.491V343.199C407.491 344.316 407.757 345.133 408.288 345.648C408.827 346.156 409.569 346.41 410.515 346.41C412.491 346.41 413.495 345.371 413.526 343.293V331.938H417.054ZM419.937 349V331.938H425.913C427.983 331.938 429.554 332.336 430.624 333.133C431.694 333.922 432.229 335.082 432.229 336.613C432.229 337.449 432.015 338.188 431.585 338.828C431.155 339.461 430.558 339.926 429.792 340.223C430.667 340.441 431.354 340.883 431.854 341.547C432.362 342.211 432.616 343.023 432.616 343.984C432.616 345.625 432.093 346.867 431.046 347.711C429.999 348.555 428.507 348.984 426.569 349H419.937ZM423.452 341.57V346.176H426.464C427.292 346.176 427.937 345.98 428.397 345.59C428.866 345.191 429.101 344.645 429.101 343.949C429.101 342.387 428.292 341.594 426.675 341.57H423.452ZM423.452 339.086H426.054C427.827 339.055 428.714 338.348 428.714 336.965C428.714 336.191 428.487 335.637 428.034 335.301C427.589 334.957 426.882 334.785 425.913 334.785H423.452V339.086Z" fill="#C4174F"/>
<path d="M183.892 414.863C183.513 412.511 181.115 411.537 179.445 413.224L163.894 428.886L151.93 405.949C150.812 403.804 148.096 403.579 146.991 405.73L140.21 418.746L123.874 387.595C122.526 385.043 119.102 385.693 118.659 388.551L103 489.509L138.748 421.577L150.337 443.16L103.013 490.201L145.026 513.875C146.336 514.612 147.812 515 149.313 515C150.813 515 152.289 514.614 153.6 513.877L196 490.038L183.892 414.863Z" fill="#E55175"/>
<path d="M105.789 530.027H99.0391V537H95.5234V519.938H106.633V522.785H99.0391V527.191H105.789V530.027ZM112.41 537H108.895V519.938H112.41V537ZM121.996 530.754H119.195V537H115.68V519.938H122.02C124.035 519.938 125.59 520.387 126.684 521.285C127.777 522.184 128.324 523.453 128.324 525.094C128.324 526.258 128.07 527.23 127.562 528.012C127.062 528.785 126.301 529.402 125.277 529.863L128.969 536.836V537H125.195L121.996 530.754ZM119.195 527.906H122.031C122.914 527.906 123.598 527.684 124.082 527.238C124.566 526.785 124.809 526.164 124.809 525.375C124.809 524.57 124.578 523.938 124.117 523.477C123.664 523.016 122.965 522.785 122.02 522.785H119.195V527.906ZM141.273 529.605H134.523V534.176H142.445V537H131.008V519.938H142.422V522.785H134.523V526.852H141.273V529.605ZM144.508 537V519.938H150.484C152.555 519.938 154.125 520.336 155.195 521.133C156.266 521.922 156.801 523.082 156.801 524.613C156.801 525.449 156.586 526.188 156.156 526.828C155.727 527.461 155.129 527.926 154.363 528.223C155.238 528.441 155.926 528.883 156.426 529.547C156.934 530.211 157.188 531.023 157.188 531.984C157.188 533.625 156.664 534.867 155.617 535.711C154.57 536.555 153.078 536.984 151.141 537H144.508ZM148.023 529.57V534.176H151.035C151.863 534.176 152.508 533.98 152.969 533.59C153.438 533.191 153.672 532.645 153.672 531.949C153.672 530.387 152.863 529.594 151.246 529.57H148.023ZM148.023 527.086H150.625C152.398 527.055 153.285 526.348 153.285 524.965C153.285 524.191 153.059 523.637 152.605 523.301C152.16 522.957 151.453 522.785 150.484 522.785H148.023V527.086ZM169.469 533.484H163.305L162.133 537H158.395L164.746 519.938H168.004L174.391 537H170.652L169.469 533.484ZM164.254 530.637H168.52L166.375 524.25L164.254 530.637ZM184.832 532.523C184.832 531.859 184.598 531.352 184.129 531C183.66 530.641 182.816 530.266 181.598 529.875C180.379 529.477 179.414 529.086 178.703 528.703C176.766 527.656 175.797 526.246 175.797 524.473C175.797 523.551 176.055 522.73 176.57 522.012C177.094 521.285 177.84 520.719 178.809 520.312C179.785 519.906 180.879 519.703 182.09 519.703C183.309 519.703 184.395 519.926 185.348 520.371C186.301 520.809 187.039 521.43 187.562 522.234C188.094 523.039 188.359 523.953 188.359 524.977H184.844C184.844 524.195 184.598 523.59 184.105 523.16C183.613 522.723 182.922 522.504 182.031 522.504C181.172 522.504 180.504 522.688 180.027 523.055C179.551 523.414 179.312 523.891 179.312 524.484C179.312 525.039 179.59 525.504 180.145 525.879C180.707 526.254 181.531 526.605 182.617 526.934C184.617 527.535 186.074 528.281 186.988 529.172C187.902 530.062 188.359 531.172 188.359 532.5C188.359 533.977 187.801 535.137 186.684 535.98C185.566 536.816 184.062 537.234 182.172 537.234C180.859 537.234 179.664 536.996 178.586 536.52C177.508 536.035 176.684 535.375 176.113 534.539C175.551 533.703 175.27 532.734 175.27 531.633H178.797C178.797 533.516 179.922 534.457 182.172 534.457C183.008 534.457 183.66 534.289 184.129 533.953C184.598 533.609 184.832 533.133 184.832 532.523ZM201.016 529.605H194.266V534.176H202.188V537H190.75V519.938H202.164V522.785H194.266V526.852H201.016V529.605Z" fill="#C4174F"/>
<path d="M350.5 391H257.5C253.389 391 249.447 392.633 246.54 395.54C243.633 398.447 242 402.389 242 406.5V499.5C242 503.611 243.633 507.553 246.54 510.46C249.447 513.367 253.389 515 257.5 515H350.5C354.611 515 358.553 513.367 361.46 510.46C364.367 507.553 366 503.611 366 499.5V406.5C366 402.389 364.367 398.447 361.46 395.54C358.553 392.633 354.611 391 350.5 391ZM295.94 484.93C295.94 486.903 295.156 488.796 293.761 490.191C292.366 491.586 290.473 492.37 288.5 492.37H265.56C263.587 492.37 261.694 491.586 260.299 490.191C258.904 488.796 258.12 486.903 258.12 484.93V414.56C258.12 410.447 261.447 407.12 265.56 407.12H288.5C292.606 407.12 295.94 410.447 295.94 414.56V484.93ZM349.88 453.93C349.88 455.903 349.096 457.796 347.701 459.191C346.306 460.586 344.413 461.37 342.44 461.37H319.5C317.527 461.37 315.634 460.586 314.239 459.191C312.844 457.796 312.06 455.903 312.06 453.93V414.56C312.06 410.447 315.394 407.12 319.5 407.12H342.44C346.553 407.12 349.88 410.447 349.88 414.56V453.93Z" fill="#E55175"/>
<path d="M275.367 522.785H270.141V537H266.625V522.785H261.469V519.938H275.367V522.785ZM283.699 530.754H280.898V537H277.383V519.938H283.723C285.738 519.938 287.293 520.387 288.387 521.285C289.48 522.184 290.027 523.453 290.027 525.094C290.027 526.258 289.773 527.23 289.266 528.012C288.766 528.785 288.004 529.402 286.98 529.863L290.672 536.836V537H286.898L283.699 530.754ZM280.898 527.906H283.734C284.617 527.906 285.301 527.684 285.785 527.238C286.27 526.785 286.512 526.164 286.512 525.375C286.512 524.57 286.281 523.938 285.82 523.477C285.367 523.016 284.668 522.785 283.723 522.785H280.898V527.906ZM302.977 529.605H296.227V534.176H304.148V537H292.711V519.938H304.125V522.785H296.227V526.852H302.977V529.605ZM309.727 534.176H317.191V537H306.211V519.938H309.727V534.176ZM322.734 534.176H330.199V537H319.219V519.938H322.734V534.176ZM345.492 528.855C345.492 530.535 345.195 532.008 344.602 533.273C344.008 534.539 343.156 535.516 342.047 536.203C340.945 536.891 339.68 537.234 338.25 537.234C336.836 537.234 335.574 536.895 334.465 536.215C333.355 535.535 332.496 534.566 331.887 533.309C331.277 532.043 330.969 530.59 330.961 528.949V528.105C330.961 526.426 331.262 524.949 331.863 523.676C332.473 522.395 333.328 521.414 334.43 520.734C335.539 520.047 336.805 519.703 338.227 519.703C339.648 519.703 340.91 520.047 342.012 520.734C343.121 521.414 343.977 522.395 344.578 523.676C345.188 524.949 345.492 526.422 345.492 528.094V528.855ZM341.93 528.082C341.93 526.293 341.609 524.934 340.969 524.004C340.328 523.074 339.414 522.609 338.227 522.609C337.047 522.609 336.137 523.07 335.496 523.992C334.855 524.906 334.531 526.25 334.523 528.023V528.855C334.523 530.598 334.844 531.949 335.484 532.91C336.125 533.871 337.047 534.352 338.25 534.352C339.43 534.352 340.336 533.891 340.969 532.969C341.602 532.039 341.922 530.688 341.93 528.914V528.082Z" fill="#C4174F"/>
<path d="M170 0H275.401L265.816 108.23L222.589 120.461L179.598 108.223L170 0ZM255.779 22.1468L189.629 22.1333L190.695 35.289L241.516 35.3025L240.241 48.9375H206.909L208.117 61.8503H239.147L237.311 79.5353L222.704 83.5718L207.874 79.5015L206.922 68.9108H193.828L195.286 88.263L222.704 96.8018L249.67 89.127L255.779 22.1468Z" fill="#E55175"/>
<path d="M212.918 138.316C212.785 140.152 212.105 141.598 210.879 142.652C209.66 143.707 208.051 144.234 206.051 144.234C203.863 144.234 202.141 143.5 200.883 142.031C199.633 140.555 199.008 138.531 199.008 135.961V134.918C199.008 133.277 199.297 131.832 199.875 130.582C200.453 129.332 201.277 128.375 202.348 127.711C203.426 127.039 204.676 126.703 206.098 126.703C208.066 126.703 209.652 127.23 210.855 128.285C212.059 129.34 212.754 130.82 212.941 132.727H209.426C209.34 131.625 209.031 130.828 208.5 130.336C207.977 129.836 207.176 129.586 206.098 129.586C204.926 129.586 204.047 130.008 203.461 130.852C202.883 131.688 202.586 132.988 202.57 134.754V136.043C202.57 137.887 202.848 139.234 203.402 140.086C203.965 140.938 204.848 141.363 206.051 141.363C207.137 141.363 207.945 141.117 208.477 140.625C209.016 140.125 209.324 139.355 209.402 138.316H212.918ZM224.074 139.523C224.074 138.859 223.84 138.352 223.371 138C222.902 137.641 222.059 137.266 220.84 136.875C219.621 136.477 218.656 136.086 217.945 135.703C216.008 134.656 215.039 133.246 215.039 131.473C215.039 130.551 215.297 129.73 215.812 129.012C216.336 128.285 217.082 127.719 218.051 127.312C219.027 126.906 220.121 126.703 221.332 126.703C222.551 126.703 223.637 126.926 224.59 127.371C225.543 127.809 226.281 128.43 226.805 129.234C227.336 130.039 227.602 130.953 227.602 131.977H224.086C224.086 131.195 223.84 130.59 223.348 130.16C222.855 129.723 222.164 129.504 221.273 129.504C220.414 129.504 219.746 129.688 219.27 130.055C218.793 130.414 218.555 130.891 218.555 131.484C218.555 132.039 218.832 132.504 219.387 132.879C219.949 133.254 220.773 133.605 221.859 133.934C223.859 134.535 225.316 135.281 226.23 136.172C227.145 137.062 227.602 138.172 227.602 139.5C227.602 140.977 227.043 142.137 225.926 142.98C224.809 143.816 223.305 144.234 221.414 144.234C220.102 144.234 218.906 143.996 217.828 143.52C216.75 143.035 215.926 142.375 215.355 141.539C214.793 140.703 214.512 139.734 214.512 138.633H218.039C218.039 140.516 219.164 141.457 221.414 141.457C222.25 141.457 222.902 141.289 223.371 140.953C223.84 140.609 224.074 140.133 224.074 139.523ZM238.84 139.523C238.84 138.859 238.605 138.352 238.137 138C237.668 137.641 236.824 137.266 235.605 136.875C234.387 136.477 233.422 136.086 232.711 135.703C230.773 134.656 229.805 133.246 229.805 131.473C229.805 130.551 230.062 129.73 230.578 129.012C231.102 128.285 231.848 127.719 232.816 127.312C233.793 126.906 234.887 126.703 236.098 126.703C237.316 126.703 238.402 126.926 239.355 127.371C240.309 127.809 241.047 128.43 241.57 129.234C242.102 130.039 242.367 130.953 242.367 131.977H238.852C238.852 131.195 238.605 130.59 238.113 130.16C237.621 129.723 236.93 129.504 236.039 129.504C235.18 129.504 234.512 129.688 234.035 130.055C233.559 130.414 233.32 130.891 233.32 131.484C233.32 132.039 233.598 132.504 234.152 132.879C234.715 133.254 235.539 133.605 236.625 133.934C238.625 134.535 240.082 135.281 240.996 136.172C241.91 137.062 242.367 138.172 242.367 139.5C242.367 140.977 241.809 142.137 240.691 142.98C239.574 143.816 238.07 144.234 236.18 144.234C234.867 144.234 233.672 143.996 232.594 143.52C231.516 143.035 230.691 142.375 230.121 141.539C229.559 140.703 229.277 139.734 229.277 138.633H232.805C232.805 140.516 233.93 141.457 236.18 141.457C237.016 141.457 237.668 141.289 238.137 140.953C238.605 140.609 238.84 140.133 238.84 139.523Z" fill="#C4174F"/>
<path d="M328 0H446V118H328V0ZM436.339 89.8644C435.476 84.4659 431.958 79.9524 421.57 75.7302C417.96 74.0413 413.926 72.8503 412.735 70.1215C412.293 68.5064 412.215 67.6251 412.503 66.6626C413.251 63.4729 416.998 62.5326 419.955 63.4176C421.876 64.0113 423.643 65.4716 424.756 67.8353C429.845 64.5128 429.845 64.5128 433.381 62.304C432.058 60.2501 431.405 59.3466 430.501 58.4837C427.408 55.0064 423.281 53.2401 416.577 53.395L413.1 53.8375C409.778 54.6451 406.61 56.4114 404.689 58.7751C399.099 65.1139 400.714 76.1764 407.491 80.7673C414.195 85.7786 424.008 86.8738 425.276 91.6012C426.449 97.3647 420.995 99.2085 415.597 98.5337C411.621 97.6487 409.413 95.6537 406.971 91.9662L397.981 97.1324C398.999 99.4961 400.19 100.514 401.956 102.586C410.504 111.211 431.899 110.769 435.738 97.6487C435.87 97.2062 436.91 94.1714 436.103 89.5436L436.339 89.8644ZM392.166 54.2357H381.122C381.122 63.7606 381.063 73.2301 381.063 82.777C381.063 88.8282 381.369 94.3963 380.392 96.1073C378.758 99.4888 374.592 99.0647 372.689 98.471C370.749 97.5123 369.75 96.1848 368.618 94.2636C368.29 93.7436 368.061 93.3048 367.984 93.3048L359.016 98.8361C360.513 101.93 362.703 104.6 365.528 106.288C369.735 108.803 375.381 109.611 381.295 108.287C385.138 107.174 388.46 104.887 390.186 101.355C392.701 96.7821 392.163 91.1771 392.144 84.8936C392.203 74.7899 392.144 64.6898 392.144 54.5086L392.166 54.2357Z" fill="#E55175"/>
<path d="M320.402 126.938H323.918V138.75C323.918 139.836 323.676 140.797 323.191 141.633C322.715 142.461 322.039 143.102 321.164 143.555C320.289 144.008 319.301 144.234 318.199 144.234C316.395 144.234 314.988 143.777 313.98 142.863C312.973 141.941 312.469 140.641 312.469 138.961H316.008C316.008 139.797 316.184 140.414 316.535 140.812C316.887 141.211 317.441 141.41 318.199 141.41C318.871 141.41 319.406 141.18 319.805 140.719C320.203 140.258 320.402 139.602 320.402 138.75V126.938ZM336.305 140.484H330.141L328.969 144H325.23L331.582 126.938H334.84L341.227 144H337.488L336.305 140.484ZM331.09 137.637H335.355L333.211 131.25L331.09 137.637ZM348.211 139.77L352.078 126.938H355.992L350.051 144H346.383L340.465 126.938H344.367L348.211 139.77ZM366.352 140.484H360.188L359.016 144H355.277L361.629 126.938H364.887L371.273 144H367.535L366.352 140.484ZM361.137 137.637H365.402L363.258 131.25L361.137 137.637ZM381.715 139.523C381.715 138.859 381.48 138.352 381.012 138C380.543 137.641 379.699 137.266 378.48 136.875C377.262 136.477 376.297 136.086 375.586 135.703C373.648 134.656 372.68 133.246 372.68 131.473C372.68 130.551 372.938 129.73 373.453 129.012C373.977 128.285 374.723 127.719 375.691 127.312C376.668 126.906 377.762 126.703 378.973 126.703C380.191 126.703 381.277 126.926 382.23 127.371C383.184 127.809 383.922 128.43 384.445 129.234C384.977 130.039 385.242 130.953 385.242 131.977H381.727C381.727 131.195 381.48 130.59 380.988 130.16C380.496 129.723 379.805 129.504 378.914 129.504C378.055 129.504 377.387 129.688 376.91 130.055C376.434 130.414 376.195 130.891 376.195 131.484C376.195 132.039 376.473 132.504 377.027 132.879C377.59 133.254 378.414 133.605 379.5 133.934C381.5 134.535 382.957 135.281 383.871 136.172C384.785 137.062 385.242 138.172 385.242 139.5C385.242 140.977 384.684 142.137 383.566 142.98C382.449 143.816 380.945 144.234 379.055 144.234C377.742 144.234 376.547 143.996 375.469 143.52C374.391 143.035 373.566 142.375 372.996 141.539C372.434 140.703 372.152 139.734 372.152 138.633H375.68C375.68 140.516 376.805 141.457 379.055 141.457C379.891 141.457 380.543 141.289 381.012 140.953C381.48 140.609 381.715 140.133 381.715 139.523ZM401.027 138.316C400.895 140.152 400.215 141.598 398.988 142.652C397.77 143.707 396.16 144.234 394.16 144.234C391.973 144.234 390.25 143.5 388.992 142.031C387.742 140.555 387.117 138.531 387.117 135.961V134.918C387.117 133.277 387.406 131.832 387.984 130.582C388.562 129.332 389.387 128.375 390.457 127.711C391.535 127.039 392.785 126.703 394.207 126.703C396.176 126.703 397.762 127.23 398.965 128.285C400.168 129.34 400.863 130.82 401.051 132.727H397.535C397.449 131.625 397.141 130.828 396.609 130.336C396.086 129.836 395.285 129.586 394.207 129.586C393.035 129.586 392.156 130.008 391.57 130.852C390.992 131.688 390.695 132.988 390.68 134.754V136.043C390.68 137.887 390.957 139.234 391.512 140.086C392.074 140.938 392.957 141.363 394.16 141.363C395.246 141.363 396.055 141.117 396.586 140.625C397.125 140.125 397.434 139.355 397.512 138.316H401.027ZM409.652 137.754H406.852V144H403.336V126.938H409.676C411.691 126.938 413.246 127.387 414.34 128.285C415.434 129.184 415.98 130.453 415.98 132.094C415.98 133.258 415.727 134.23 415.219 135.012C414.719 135.785 413.957 136.402 412.934 136.863L416.625 143.836V144H412.852L409.652 137.754ZM406.852 134.906H409.688C410.57 134.906 411.254 134.684 411.738 134.238C412.223 133.785 412.465 133.164 412.465 132.375C412.465 131.57 412.234 130.938 411.773 130.477C411.32 130.016 410.621 129.785 409.676 129.785H406.852V134.906ZM422.402 144H418.887V126.938H422.402V144ZM429.188 137.988V144H425.672V126.938H432.328C433.609 126.938 434.734 127.172 435.703 127.641C436.68 128.109 437.43 128.777 437.953 129.645C438.477 130.504 438.738 131.484 438.738 132.586C438.738 134.258 438.164 135.578 437.016 136.547C435.875 137.508 434.293 137.988 432.27 137.988H429.188ZM429.188 135.141H432.328C433.258 135.141 433.965 134.922 434.449 134.484C434.941 134.047 435.188 133.422 435.188 132.609C435.188 131.773 434.941 131.098 434.449 130.582C433.957 130.066 433.277 129.801 432.41 129.785H429.188V135.141ZM454.008 129.785H448.781V144H445.266V129.785H440.109V126.938H454.008V129.785Z" fill="#C4174F"/>
</svg>
