<svg width="201" height="83" viewBox="0 0 201 83" fill="none" xmlns="http://www.w3.org/2000/svg">
<rect width="201" height="83" fill="#C4174F"/>
<rect x="126.361" width="74.6384" height="83" fill="#E55175"/>
<path d="M38.1569 58.0347C35.4681 58.0347 33.1286 57.4944 31.1382 56.4139C29.1479 55.2985 27.6115 53.73 26.529 51.7084C25.4465 49.6868 24.9053 47.3166 24.9053 44.5978C24.9053 41.8791 25.4465 39.5438 26.529 37.5918C27.6115 35.6051 29.1479 34.0888 31.1382 33.0432C33.1286 31.9627 35.4681 31.4224 38.1569 31.4224C39.3092 31.4224 40.5488 31.5792 41.8757 31.8929C43.2375 32.2066 44.512 32.7295 45.6993 33.4614C46.3977 33.8797 46.7992 34.42 46.904 35.0822C47.0436 35.7445 46.9563 36.3545 46.6421 36.9122C46.3627 37.4698 45.9263 37.8707 45.3326 38.1147C44.7739 38.3587 44.1279 38.2715 43.3947 37.8533C41.7884 36.947 40.2345 36.4939 38.733 36.4939C36.4633 36.4939 34.6999 37.2084 33.4429 38.6375C32.2207 40.0317 31.6096 42.0359 31.6096 44.6501C31.6096 47.2294 32.2207 49.2685 33.4429 50.7673C34.6999 52.2312 36.4633 52.9632 38.733 52.9632C40.2345 52.9632 41.7884 52.5275 43.3947 51.6561C44.1279 51.2378 44.7739 51.1507 45.3326 51.3947C45.8913 51.6387 46.2929 52.0569 46.5373 52.6495C46.7818 53.2072 46.8341 53.8171 46.6945 54.4794C46.5548 55.1068 46.1532 55.6296 45.4898 56.0479C44.3375 56.745 43.1153 57.2504 41.8233 57.5641C40.5313 57.8778 39.3092 58.0347 38.1569 58.0347Z" fill="white"/>
<path d="M59.3044 58.0347C57.4537 58.0347 55.7951 57.6861 54.3285 56.989C52.8969 56.257 51.762 55.2811 50.924 54.0611C50.1208 52.8412 49.7193 51.4644 49.7193 49.9307C49.7193 48.0485 50.2081 46.5672 51.1859 45.4866C52.1636 44.3713 53.7524 43.5696 55.9522 43.0816C58.1521 42.5936 61.1027 42.3496 64.8041 42.3496H66.6373V41.2517C66.6373 39.5089 66.2532 38.2541 65.485 37.4873C64.7168 36.7204 63.4248 36.337 61.6091 36.337C60.5964 36.337 59.4965 36.459 58.3092 36.703C57.1569 36.947 55.9348 37.3653 54.6428 37.9578C53.8048 38.3412 53.1064 38.3935 52.5477 38.1147C51.989 37.801 51.6049 37.3304 51.3954 36.703C51.2208 36.0408 51.2557 35.3785 51.5001 34.7162C51.7795 34.054 52.3207 33.566 53.1238 33.2523C54.7301 32.5901 56.2665 32.1195 57.7331 31.8407C59.2346 31.5618 60.5964 31.4224 61.8186 31.4224C65.5548 31.4224 68.3309 32.2938 70.1466 34.0366C71.9624 35.7445 72.8703 38.4109 72.8703 42.0359V54.584C72.8703 56.8147 71.8577 57.9301 69.8324 57.9301C67.7722 57.9301 66.7421 56.8147 66.7421 54.584V53.4337C66.1485 54.8628 65.2057 55.9956 63.9137 56.8322C62.6217 57.6338 61.0853 58.0347 59.3044 58.0347ZM60.6662 53.5383C62.3773 53.5383 63.7915 52.9458 64.9089 51.7607C66.0612 50.5756 66.6373 49.0768 66.6373 47.2643V46.114H64.8565C61.5741 46.114 59.287 46.3755 57.995 46.8983C56.7379 47.3863 56.1094 48.2925 56.1094 49.617C56.1094 50.7673 56.5109 51.7084 57.3141 52.4403C58.1172 53.1723 59.2346 53.5383 60.6662 53.5383Z" fill="white"/>
<path d="M91.2484 58.0347C84.4742 58.0347 81.0871 54.6885 81.0871 47.9963V36.8599H78.3634C76.6175 36.8599 75.7445 36.0408 75.7445 34.4025C75.7445 32.7643 76.6175 31.9452 78.3634 31.9452H81.0871V27.1874C81.0871 24.9915 82.187 23.8936 84.3869 23.8936C86.5518 23.8936 87.6343 24.9915 87.6343 27.1874V31.9452H93.1863C94.9323 31.9452 95.8052 32.7643 95.8052 34.4025C95.8052 36.0408 94.9323 36.8599 93.1863 36.8599H87.6343V47.6303C87.6343 49.3033 88.0009 50.5581 88.7342 51.3947C89.4675 52.2312 90.6548 52.6495 92.2959 52.6495C92.8895 52.6495 93.4133 52.5972 93.8673 52.4926C94.3212 52.3881 94.7228 52.3184 95.0719 52.2835C95.491 52.2486 95.8402 52.3881 96.1195 52.7018C96.3989 52.9806 96.5385 53.5732 96.5385 54.4794C96.5385 55.1765 96.4163 55.8039 96.1719 56.3616C95.9624 56.8844 95.5608 57.2504 94.9672 57.4596C94.5133 57.599 93.9196 57.721 93.1863 57.8255C92.4531 57.965 91.8071 58.0347 91.2484 58.0347Z" fill="white"/>
<path d="M108.051 58.0347C106.2 58.0347 104.541 57.6861 103.075 56.989C101.643 56.257 100.508 55.2811 99.6702 54.0611C98.867 52.8412 98.4655 51.4644 98.4655 49.9307C98.4655 48.0485 98.9543 46.5672 99.932 45.4866C100.91 44.3713 102.499 43.5696 104.698 43.0816C106.898 42.5936 109.849 42.3496 113.55 42.3496H115.384V41.2517C115.384 39.5089 114.999 38.2541 114.231 37.4873C113.463 36.7204 112.171 36.337 110.355 36.337C109.343 36.337 108.243 36.459 107.055 36.703C105.903 36.947 104.681 37.3653 103.389 37.9578C102.551 38.3412 101.853 38.3935 101.294 38.1147C100.735 37.801 100.351 37.3304 100.142 36.703C99.967 36.0408 100.002 35.3785 100.246 34.7162C100.526 34.054 101.067 33.566 101.87 33.2523C103.476 32.5901 105.013 32.1195 106.479 31.8407C107.981 31.5618 109.343 31.4224 110.565 31.4224C114.301 31.4224 117.077 32.2938 118.893 34.0366C120.709 35.7445 121.616 38.4109 121.616 42.0359V54.584C121.616 56.8147 120.604 57.9301 118.579 57.9301C116.518 57.9301 115.488 56.8147 115.488 54.584V53.4337C114.895 54.8628 113.952 55.9956 112.66 56.8322C111.368 57.6338 109.831 58.0347 108.051 58.0347ZM109.412 53.5383C111.123 53.5383 112.538 52.9458 113.655 51.7607C114.807 50.5756 115.384 49.0768 115.384 47.2643V46.114H113.603C110.32 46.114 108.033 46.3755 106.741 46.8983C105.484 47.3863 104.856 48.2925 104.856 49.617C104.856 50.7673 105.257 51.7084 106.06 52.4403C106.863 53.1723 107.981 53.5383 109.412 53.5383Z" fill="white"/>
<path d="M136.223 66.034C134.058 62.6182 132.487 59.0281 131.509 55.2636C130.567 51.4644 130.095 47.6303 130.095 43.7613C130.095 39.8923 130.584 36.0756 131.562 32.3112C132.539 28.5119 134.093 24.9044 136.223 21.4885C136.607 20.8611 137.114 20.4777 137.742 20.3383C138.406 20.164 139.017 20.1989 139.576 20.4429C140.169 20.6868 140.606 21.14 140.885 21.8022C141.164 22.4296 141.129 23.2313 140.78 24.2073C139.523 27.5883 138.598 30.8473 138.004 33.9843C137.411 37.0864 137.114 40.3454 137.114 43.7613C137.114 47.1423 137.428 50.4013 138.057 53.5383C138.685 56.6404 139.593 59.8995 140.78 63.3153C141.129 64.2913 141.164 65.0929 140.885 65.7203C140.606 66.3826 140.169 66.8357 139.576 67.0797C139.017 67.3237 138.406 67.3586 137.742 67.1843C137.114 67.0449 136.607 66.6614 136.223 66.034Z" fill="white"/>
<path d="M153.112 66.034C152.728 66.6614 152.204 67.0449 151.541 67.1843C150.912 67.3586 150.301 67.3063 149.707 67.0274C149.114 66.7834 148.677 66.3477 148.398 65.7203C148.153 65.0929 148.206 64.2913 148.555 63.3153C149.847 59.9343 150.772 56.6753 151.331 53.5383C151.925 50.4013 152.222 47.1423 152.222 43.7613C152.222 40.3454 151.907 37.0864 151.279 33.9843C150.65 30.8473 149.742 27.5883 148.555 24.2073C148.206 23.2313 148.171 22.4296 148.45 21.8022C148.73 21.14 149.166 20.6868 149.76 20.4429C150.353 20.1989 150.964 20.164 151.593 20.3383C152.222 20.4777 152.728 20.8611 153.112 21.4885C155.242 24.8695 156.796 28.4597 157.774 32.2589C158.751 36.0582 159.24 39.8923 159.24 43.7613C159.24 47.6303 158.751 51.4644 157.774 55.2636C156.796 59.0281 155.242 62.6182 153.112 66.034Z" fill="white"/>
<path d="M171.046 39.4218C169.859 39.4218 168.899 39.0558 168.165 38.3238C167.467 37.5918 167.118 36.6682 167.118 35.5528C167.118 34.4025 167.467 33.4789 168.165 32.7818C168.899 32.0498 169.859 31.6838 171.046 31.6838C172.268 31.6838 173.211 32.0498 173.874 32.7818C174.573 33.4789 174.922 34.4025 174.922 35.5528C174.922 36.6682 174.573 37.5918 173.874 38.3238C173.211 39.0558 172.268 39.4218 171.046 39.4218ZM171.884 63.1062C171.43 63.6639 170.941 63.9776 170.417 64.0473C169.929 64.1518 169.492 64.0647 169.108 63.7859C168.724 63.507 168.514 63.1062 168.48 62.5833C168.445 62.0954 168.672 61.5551 169.16 60.9626C169.579 60.4397 169.911 59.8995 170.156 59.3418C170.4 58.7841 170.592 58.2612 170.732 57.7733C169.649 57.6687 168.776 57.2678 168.113 56.5707C167.449 55.8736 167.118 54.9674 167.118 53.852C167.118 52.7366 167.467 51.8304 168.165 51.1333C168.864 50.4013 169.806 50.0353 170.994 50.0353C172.216 50.0353 173.176 50.4536 173.874 51.2901C174.573 52.0918 174.922 53.2594 174.922 54.7931C174.922 56.0479 174.712 57.355 174.293 58.7144C173.909 60.1086 173.106 61.5725 171.884 63.1062Z" fill="white"/>
</svg>
