<svg width="619" height="602" viewBox="0 0 619 602" fill="none" xmlns="http://www.w3.org/2000/svg">
<path d="M309.036 2.5854e-05C138.293 -0.0690171 0 138.155 0 308.76C0 443.67 86.5108 558.351 206.991 600.467C223.216 604.54 220.73 593.01 220.73 585.139V531.631C127.039 542.609 123.242 480.608 116.959 470.252C104.255 448.572 74.2212 443.049 83.1968 432.692C104.531 421.714 126.28 435.454 151.48 472.668C169.708 499.664 205.265 495.107 223.285 490.619C227.22 474.394 235.644 459.895 247.243 448.641C150.168 431.242 109.709 372.004 109.709 301.58C109.709 267.403 120.963 235.989 143.057 210.65C128.972 168.879 144.369 133.115 146.44 127.799C186.554 124.208 228.256 156.52 231.501 159.075C254.285 152.93 280.314 149.685 309.451 149.685C338.725 149.685 364.823 153.068 387.814 159.282C395.616 153.344 434.28 125.589 471.563 128.972C473.566 134.289 488.617 169.224 475.361 210.443C497.731 235.851 509.123 267.542 509.123 301.787C509.123 372.349 468.388 431.657 371.037 448.779C379.375 456.98 385.996 466.759 390.513 477.547C395.029 488.334 397.351 499.914 397.342 511.608V589.282C397.895 595.496 397.342 601.64 407.699 601.64C529.974 560.422 618.004 444.913 618.004 308.829C618.004 138.155 479.642 2.5854e-05 309.036 2.5854e-05V2.5854e-05Z" fill="black"/>
</svg>
