<svg width="86" height="86" viewBox="0 0 86 86" fill="none" xmlns="http://www.w3.org/2000/svg">
<path d="M21.6346 65.172C20.9627 65.0376 20.4252 64.9032 19.7533 64.6345C19.0814 64.3657 18.5439 64.2313 18.0064 63.9626C16.7971 63.4251 15.7221 62.7532 14.6471 61.947C12.4971 60.4688 10.7502 58.4532 9.40644 56.0345C8.06269 53.7501 7.25644 51.0626 7.12207 48.5095C6.98769 47.1657 7.12207 45.9563 7.25644 44.6126C7.39082 43.9407 7.52519 43.4032 7.65957 42.7313C7.79394 42.0595 8.06269 41.522 8.19707 40.8501L8.33144 42.7313C8.33144 43.4032 8.46582 43.9407 8.60019 44.6126C8.73457 45.822 9.00332 47.0313 9.27207 48.1063C9.80957 50.3907 10.6158 52.5407 11.8252 54.5563C13.0346 56.572 14.3783 58.4532 16.1252 60.2001C16.9314 61.0063 17.8721 61.8126 18.8127 62.6188C19.2158 63.022 19.7533 63.4251 20.2908 63.8282L21.6346 65.172Z" fill="#42ADE2"/>
<path d="M21.2313 70.0095C20.8281 70.2782 20.2906 70.4126 19.7531 70.547C19.2156 70.6813 18.8125 70.8157 18.275 70.8157C17.3344 70.9501 16.2594 71.0845 15.1844 70.9501C13.1688 70.8157 11.0188 70.2782 9.27188 69.3376C7.39063 68.397 5.77813 66.9188 4.70312 65.172C4.16562 64.3657 3.62813 63.4251 3.225 62.4845C3.09063 62.0813 2.95625 61.5438 2.82187 61.0063C2.82187 60.6032 2.6875 60.2001 2.6875 59.6626C3.09063 60.0657 3.35938 60.4688 3.62813 60.7376C4.03125 61.1407 4.3 61.5438 4.56875 61.8126C5.24063 62.4845 5.77813 63.1563 6.45 63.6938C7.79375 64.9032 9.1375 65.9782 10.75 66.7845C12.2281 67.5907 13.975 68.2626 15.5875 68.8001C16.3938 69.0688 17.3344 69.2032 18.275 69.472C18.6781 69.6063 19.2156 69.6063 19.6188 69.7407C20.2906 69.8751 20.6938 69.8751 21.2313 70.0095" fill="#42ADE2"/>
<path d="M51.6006 4.70312C52.2725 4.8375 52.81 5.10625 53.4818 5.375C54.1537 5.64375 54.6912 5.9125 55.2287 6.18125C56.4381 6.85312 57.5131 7.525 58.5881 8.33125C60.7381 9.94375 62.485 12.0938 63.6943 14.5125C64.9037 16.9313 65.5756 19.6188 65.5756 22.1719C65.5756 23.5156 65.4412 24.725 65.1725 26.0687C65.0381 26.7406 64.9037 27.2781 64.635 27.95C64.3662 28.6219 64.2318 29.1594 63.9631 29.6969L63.8287 27.8156C63.8287 27.1438 63.8287 26.6062 63.6943 25.9344L63.2912 22.3063C62.8881 20.0219 62.0818 17.7375 61.0068 15.5875C59.9318 13.4375 58.5881 11.5563 56.9756 9.80938C56.1693 8.86875 55.2287 8.0625 54.4225 7.12188C54.0193 6.71875 53.4818 6.31563 52.9443 5.9125L51.6006 4.70312" fill="#42ADE2"/>
<path d="M63.291 4.16565C63.8285 4.30002 64.2316 4.4344 64.6348 4.70315C65.0379 4.83752 65.5754 5.10627 65.9785 5.37502C66.7848 5.91252 67.591 6.45002 68.3973 7.1219C69.8754 8.46565 71.0848 10.0781 71.7566 11.9594C72.5629 13.8406 72.8316 15.8563 72.5629 17.8719C72.4285 18.8125 72.1598 19.7531 71.891 20.6938C71.7566 21.0969 71.4879 21.6344 71.3535 22.0375C71.0848 22.4406 70.9504 22.8438 70.5473 23.2469V20.5594C70.5473 19.6188 70.4129 18.8125 70.4129 18.0063C70.1441 16.2594 69.8754 14.6469 69.2035 13.1688C68.5316 11.5563 67.7254 10.2125 66.7848 8.7344C66.2473 8.06252 65.7098 7.25627 65.1723 6.5844C64.9035 6.18127 64.6348 5.91252 64.2316 5.5094C63.9629 4.83752 63.5598 4.4344 63.291 4.16565" fill="#42ADE2"/>
<path d="M13.4373 24.1875C10.7498 25.3968 9.8092 28.6218 11.0186 31.3093L27.9498 66.65L37.3561 62.2156L20.4248 26.7406C19.2154 24.0531 16.1248 22.8437 13.4373 24.1875" fill="#FFDD67"/>
<path d="M57.9155 52.2719L67.8593 47.5687L48.5093 7.25622C47.1655 4.56872 43.9405 3.35935 41.1187 4.7031C38.4312 6.04685 37.2218 9.27185 38.5655 12.0937L57.9155 52.2719Z" fill="#FFDD67"/>
<path d="M41.2525 4.56873C40.9838 4.7031 40.715 4.83748 40.4463 5.10623C42.9994 4.43435 45.6869 5.64373 46.8963 8.06248L66.2463 48.375L67.9932 47.5687L48.6432 7.25623C47.2994 4.43435 44.0744 3.22498 41.2525 4.56873" fill="#EBA352"/>
<path d="M37.3558 62.0813L47.7027 57.1094L27.9495 15.9906C26.6058 13.1688 23.112 11.825 20.2902 13.1688C17.4683 14.5125 16.2589 18.0063 17.6027 20.8281L37.3558 62.0813Z" fill="#FFDD67"/>
<path d="M20.2906 13.3031C20.0219 13.4375 19.7531 13.5718 19.4844 13.8406C22.0375 13.1687 24.9938 14.3781 26.2031 16.9312L38.4313 42.5968L41.3875 44.3437L27.95 16.125C26.6062 13.1687 23.2469 11.9593 20.2906 13.3031" fill="#EBA352"/>
<path d="M46.0902 53.8844L56.437 48.9126L36.6839 7.79382C35.3402 4.97195 31.8464 3.6282 29.0245 5.10632C26.2027 6.45007 24.9933 9.94382 26.337 12.7657L46.0902 53.8844Z" fill="#FFDD67"/>
<path d="M29.025 4.9719C28.7563 5.10628 28.4875 5.37503 28.2188 5.5094C30.7719 4.83753 33.7281 6.0469 34.9375 8.60003L48.7781 37.625L51.7344 39.3719L36.6844 7.79378C35.3406 4.83753 31.8469 3.62815 29.025 4.9719" fill="#EBA352"/>
<path d="M13.4381 24.1875C13.1693 24.3219 12.9006 24.4563 12.6318 24.725C15.0506 24.0531 17.6037 25.2625 18.6787 27.6813L28.7568 48.7781L31.7131 50.525L20.4256 26.875C19.2162 24.0531 16.1256 22.8438 13.4381 24.1875Z" fill="#EBA352"/>
<path d="M81.6999 20.1563C78.0717 17.3344 72.1592 20.4251 69.203 30.1001C67.1874 36.8188 66.9186 38.8344 62.6186 40.8501L60.1999 35.8782C60.1999 35.8782 22.0374 54.2876 23.5155 57.2438C23.5155 57.2438 28.0842 71.4876 35.878 78.0719C47.4342 88.0157 74.4436 77.4001 75.653 51.7344C76.3249 36.8188 85.5967 23.2469 81.6999 20.1563Z" fill="#FFDD67"/>
<path d="M81.7006 20.1563C81.0287 19.6188 80.2225 19.3501 79.4162 19.2157C79.5506 19.3501 79.8193 19.3501 79.9537 19.4844C83.985 22.5751 79.8193 29.6969 77.535 36.1469C75.6537 41.2532 74.0412 46.4938 74.31 51.6001C75.385 73.9063 52.9443 84.522 39.5068 80.4907C52.6756 86.0001 77.1318 75.5188 76.0568 52.272C75.7881 47.1657 77.2662 42.1938 79.2818 36.8188C81.4318 30.3688 85.5975 23.2469 81.7006 20.1563" fill="#EBA352"/>
<path d="M63.8287 40.3125C55.4974 41.2531 43.2693 53.2125 51.8693 66.2469C45.5537 53.0781 55.9006 44.2094 62.4849 41.1188C63.1568 40.5813 63.8287 40.3125 63.8287 40.3125" fill="#EBA352"/>
</svg>
