<svg width="621" height="337" viewBox="0 0 621 337" fill="none" xmlns="http://www.w3.org/2000/svg">
<path d="M13 0L22.3492 107.89L64.3135 119.875L106.385 107.874L115.75 0H13ZM95.4141 35.3203H46.1797L47.25 48.9668H94.3438L90.7288 89.4755L64.375 96.9917L37.9704 89.4995L36.1562 68.7676H49.0695L49.9846 79.2807L64.375 83.2355L78.669 79.2433L80.1621 62.0781H35.4766L32.1078 22.0511H96.5379L95.4141 35.3203Z" fill="#E55175"/>
<path d="M46.4102 145H42.8945V137.688H36.0391V145H32.5234V127.938H36.0391V134.852H42.8945V127.938H46.4102V145ZM61.9844 130.785H56.7578V145H53.2422V130.785H48.0859V127.938H61.9844V130.785ZM68.5938 127.938L72.9766 140.312L77.3359 127.938H81.9531V145H78.4258V140.336L78.7773 132.285L74.1719 145H71.7578L67.1641 132.297L67.5156 140.336V145H64V127.938H68.5938ZM88.5391 142.176H96.0039V145H85.0234V127.938H88.5391V142.176Z" fill="#C4174F"/>
<path d="M551 49.9729C544.118 49.9729 538.514 55.5969 538.514 62.503C538.514 69.4091 544.118 75.0331 551 75.0331C557.882 75.0331 563.486 69.4091 563.486 62.503C563.486 55.5969 557.882 49.9729 551 49.9729ZM516.044 87.4052L513.288 86.7203C492.777 81.5045 481 72.6799 481 62.481C481 52.2822 492.782 43.4575 513.288 38.2418L516.044 37.5569L516.818 40.3009C518.899 47.488 521.559 54.4933 524.772 61.2473L525.363 62.481L524.772 63.7367C521.552 70.4879 518.892 77.4937 516.818 84.6832L516.044 87.4052ZM512.014 44.6429C496.426 49.0333 486.858 55.7769 486.858 62.481C486.858 69.1851 496.431 75.9024 512.014 80.3191C513.925 74.2281 516.231 68.2693 518.918 62.481C516.227 56.6944 513.921 50.7353 512.014 44.6429ZM585.956 87.4052L585.182 84.6612C583.105 77.48 580.445 70.4817 577.228 63.7367L576.638 62.481L577.228 61.2254C580.448 54.4742 583.108 47.4684 585.182 40.2789L585.956 37.5569L588.713 38.2418C609.223 43.4575 621 52.2822 621 62.481C621 72.6799 609.218 81.5045 588.713 86.7203L585.956 87.4052ZM583.082 62.481C585.778 68.2655 588.084 74.2249 589.986 80.3191C605.596 75.9068 615.142 69.1851 615.142 62.481C615.142 55.7769 605.569 49.0597 589.986 44.6429C588.071 50.7324 585.765 56.6909 583.082 62.481ZM511.966 44.621L511.192 41.877C505.426 21.4793 507.18 6.84619 516 1.74457C524.658 -3.26485 538.536 2.65777 553.096 17.6597L555.077 19.6968L553.096 21.734C547.925 27.1325 543.201 32.944 538.969 39.1111L538.173 40.2306L536.803 40.3448C529.359 40.9344 521.975 42.1281 514.722 43.9141L511.966 44.621ZM523.039 5.81884C521.469 5.81884 520.078 6.13934 518.914 6.82424C513.126 10.1873 512.102 21.8481 516.088 37.5788C522.306 36.1828 528.61 35.1973 534.957 34.6285C538.611 29.4056 542.607 24.4321 546.918 19.7407C537.827 10.8458 529.213 5.81445 523.039 5.81445V5.81884ZM578.982 124.996C578.961 124.996 578.961 124.996 578.982 124.996C570.666 124.996 559.978 118.731 548.904 107.298L546.923 105.261L548.904 103.224C554.075 97.8252 558.799 92.0137 563.031 85.8466L563.806 84.7271L565.175 84.591C572.629 84.0211 580.022 82.8272 587.277 81.0216L590.034 80.3367L590.808 83.0807C596.574 103.478 594.82 118.09 586 123.187C583.868 124.417 581.442 125.04 578.982 124.991V124.996ZM555.077 105.217C564.169 114.112 572.783 119.143 578.956 119.143H578.978C580.527 119.143 581.918 118.801 583.082 118.138C588.87 114.775 589.92 103.114 585.908 87.3833C579.69 88.7807 573.387 89.759 567.039 90.3116C563.385 95.5416 559.389 100.522 555.077 105.221V105.217ZM590.034 44.621L587.277 43.9141C580.017 42.1341 572.626 40.9404 565.175 40.3448L563.806 40.2306L563.031 39.1111C558.799 32.944 554.075 27.1325 548.904 21.734L546.923 19.6968L548.904 17.6597C563.464 2.65777 577.342 -3.26485 586 1.74457C594.82 6.8418 596.574 21.4793 590.808 41.877L590.034 44.621ZM567.043 34.6285C573.391 35.1957 579.694 36.1813 585.912 37.5788C589.924 21.8481 588.874 10.1829 583.086 6.82424C577.32 3.48755 566.474 8.60673 555.082 19.7451C559.381 24.4466 563.377 29.4193 567.043 34.6329V34.6285ZM523.039 124.996C520.576 125.04 518.139 124.425 516 123.191C507.18 118.094 505.426 103.478 511.192 83.0851L511.966 80.3411L514.722 81.026C521.469 82.7426 528.897 83.928 536.803 84.5954L538.173 84.7315L538.947 85.851C543.179 92.0181 547.903 97.8296 553.074 103.228L555.056 105.265L553.074 107.302C542.023 118.735 531.334 125 523.039 125V124.996ZM516.092 87.3833C512.08 103.114 513.13 114.779 518.918 118.138C524.684 121.431 535.508 116.355 546.923 105.217C542.611 100.518 538.615 95.5372 534.961 90.3073C528.613 89.7563 522.309 88.7779 516.092 87.3789V87.3833ZM551 91.0624C546.192 91.0624 541.27 90.856 536.326 90.4434L534.957 90.3292L534.161 89.1877C531.368 85.1612 528.745 81.0189 526.299 76.7717C523.847 72.5244 521.575 68.1755 519.487 63.7367L518.896 62.481L519.487 61.2254C523.669 52.3497 528.578 43.8369 534.161 35.7744L534.957 34.6329L536.326 34.5187C546.091 33.6933 555.909 33.6933 565.674 34.5187L567.043 34.6329L567.839 35.7744C573.43 43.8323 578.338 52.3457 582.513 61.2254L583.104 62.481L582.513 63.7367C578.346 72.6208 573.438 81.1348 567.839 89.1877L567.043 90.3292L565.674 90.4434C560.793 90.8532 555.898 91.0597 551 91.0624ZM538.194 84.7051C546.809 85.3681 555.191 85.3681 563.827 84.7051C568.644 77.6274 572.925 70.1971 576.633 62.4767C572.94 54.7435 568.651 47.3114 563.806 40.2482C555.281 39.5852 546.719 39.5852 538.194 40.2482C533.345 47.3092 529.056 54.7416 525.367 62.4767C529.077 70.2009 533.365 77.6317 538.194 84.7051Z" fill="#E55175"/>
<path d="M521.84 141.754H519.039V148H515.523V130.938H521.863C523.879 130.938 525.434 131.387 526.527 132.285C527.621 133.184 528.168 134.453 528.168 136.094C528.168 137.258 527.914 138.23 527.406 139.012C526.906 139.785 526.145 140.402 525.121 140.863L528.812 147.836V148H525.039L521.84 141.754ZM519.039 138.906H521.875C522.758 138.906 523.441 138.684 523.926 138.238C524.41 137.785 524.652 137.164 524.652 136.375C524.652 135.57 524.422 134.938 523.961 134.477C523.508 134.016 522.809 133.785 521.863 133.785H519.039V138.906ZM541.117 140.605H534.367V145.176H542.289V148H530.852V130.938H542.266V133.785H534.367V137.852H541.117V140.605ZM553.984 144.484H547.82L546.648 148H542.91L549.262 130.938H552.52L558.906 148H555.168L553.984 144.484ZM548.77 141.637H553.035L550.891 135.25L548.77 141.637ZM573.637 142.316C573.504 144.152 572.824 145.598 571.598 146.652C570.379 147.707 568.77 148.234 566.77 148.234C564.582 148.234 562.859 147.5 561.602 146.031C560.352 144.555 559.727 142.531 559.727 139.961V138.918C559.727 137.277 560.016 135.832 560.594 134.582C561.172 133.332 561.996 132.375 563.066 131.711C564.145 131.039 565.395 130.703 566.816 130.703C568.785 130.703 570.371 131.23 571.574 132.285C572.777 133.34 573.473 134.82 573.66 136.727H570.145C570.059 135.625 569.75 134.828 569.219 134.336C568.695 133.836 567.895 133.586 566.816 133.586C565.645 133.586 564.766 134.008 564.18 134.852C563.602 135.688 563.305 136.988 563.289 138.754V140.043C563.289 141.887 563.566 143.234 564.121 144.086C564.684 144.938 565.566 145.363 566.77 145.363C567.855 145.363 568.664 145.117 569.195 144.625C569.734 144.125 570.043 143.355 570.121 142.316H573.637ZM588.438 133.785H583.211V148H579.695V133.785H574.539V130.938H588.438V133.785Z" fill="#C4174F"/>
<path d="M124.605 238.843L69.1556 183.395C65.9642 180.202 60.785 180.202 57.5896 183.395L46.0753 194.91L60.6818 209.516C64.0761 208.369 67.9684 209.139 70.6741 211.845C73.3927 214.568 74.1567 218.493 72.982 221.899L87.0587 235.976C90.4644 234.803 94.3939 235.562 97.114 238.286C100.916 242.087 100.916 248.246 97.114 252.048C93.3114 255.851 87.1524 255.851 83.3479 252.048C80.4884 249.186 79.782 244.986 81.2296 241.463L68.1019 228.336L68.1004 262.883C69.0521 263.353 69.9212 263.975 70.6741 264.723C74.4757 268.523 74.4757 274.683 70.6741 278.489C66.8716 282.29 60.7096 282.29 56.9125 278.489C53.1109 274.683 53.1109 268.524 56.9125 264.724C57.8235 263.812 58.9062 263.09 60.0979 262.6V227.731C58.9044 227.244 57.8212 226.521 56.9125 225.607C54.0322 222.731 53.3396 218.504 54.8155 214.968L40.4168 200.567L2.39614 238.586C-0.798713 241.782 -0.798713 246.962 2.39614 250.156L57.8466 305.605C61.039 308.798 66.2172 308.798 69.4136 305.605L124.605 250.414C127.798 247.219 127.798 242.036 124.605 238.843" fill="#E55175"/>
<path d="M59 329.844C58.3672 330.602 57.4727 331.191 56.3164 331.613C55.1602 332.027 53.8789 332.234 52.4727 332.234C50.9961 332.234 49.6992 331.914 48.582 331.273C47.4727 330.625 46.6133 329.688 46.0039 328.461C45.4023 327.234 45.0938 325.793 45.0781 324.137V322.977C45.0781 321.273 45.3633 319.801 45.9336 318.559C46.5117 317.309 47.3398 316.355 48.418 315.699C49.5039 315.035 50.7734 314.703 52.2266 314.703C54.25 314.703 55.832 315.188 56.9727 316.156C58.1133 317.117 58.7891 318.52 59 320.363H55.5781C55.4219 319.387 55.0742 318.672 54.5352 318.219C54.0039 317.766 53.2695 317.539 52.332 317.539C51.1367 317.539 50.2266 317.988 49.6016 318.887C48.9766 319.785 48.6602 321.121 48.6523 322.895V323.984C48.6523 325.773 48.9922 327.125 49.6719 328.039C50.3516 328.953 51.3477 329.41 52.6602 329.41C53.9805 329.41 54.9219 329.129 55.4844 328.566V325.625H52.2852V323.035H59V329.844ZM65.5977 332H62.082V314.938H65.5977V332ZM81.3594 317.785H76.1328V332H72.6172V317.785H67.4609V314.938H81.3594V317.785Z" fill="#C4174F"/>
<path fill-rule="evenodd" clip-rule="evenodd" d="M217.089 183C181.68 183 153 211.68 153 247.089C153 275.448 171.345 299.401 196.821 307.893C200.025 308.453 201.227 306.531 201.227 304.848C201.227 303.326 201.147 298.279 201.147 292.912C185.044 295.876 180.879 288.986 179.597 285.381C178.876 283.539 175.751 277.851 173.028 276.329C170.785 275.127 167.58 272.163 172.948 272.083C177.995 272.003 181.6 276.729 182.801 278.652C188.569 288.346 197.782 285.622 201.467 283.939C202.028 279.774 203.71 276.97 205.553 275.368C191.293 273.765 176.392 268.238 176.392 243.724C176.392 236.754 178.876 230.986 182.961 226.5C182.321 224.898 180.077 218.329 183.602 209.517C183.602 209.517 188.97 207.834 201.227 216.086C206.354 214.644 211.801 213.923 217.249 213.923C222.696 213.923 228.144 214.644 233.271 216.086C245.528 207.754 250.895 209.517 250.895 209.517C254.42 218.329 252.177 224.898 251.536 226.5C255.622 230.986 258.105 236.674 258.105 243.724C258.105 268.318 243.124 273.765 228.865 275.368C231.188 277.37 233.191 281.216 233.191 287.224C233.191 295.796 233.111 302.685 233.111 304.848C233.111 306.531 234.312 308.533 237.517 307.893C250.239 303.597 261.295 295.42 269.127 284.513C276.959 273.605 281.173 260.517 281.177 247.089C281.177 211.68 252.497 183 217.089 183Z" fill="#E55175"/>
<path d="M187.796 329.844C187.163 330.602 186.269 331.191 185.112 331.613C183.956 332.027 182.675 332.234 181.269 332.234C179.792 332.234 178.495 331.914 177.378 331.273C176.269 330.625 175.409 329.688 174.8 328.461C174.198 327.234 173.89 325.793 173.874 324.137V322.977C173.874 321.273 174.159 319.801 174.729 318.559C175.308 317.309 176.136 316.355 177.214 315.699C178.3 315.035 179.569 314.703 181.022 314.703C183.046 314.703 184.628 315.188 185.769 316.156C186.909 317.117 187.585 318.52 187.796 320.363H184.374C184.218 319.387 183.87 318.672 183.331 318.219C182.8 317.766 182.065 317.539 181.128 317.539C179.933 317.539 179.022 317.988 178.397 318.887C177.772 319.785 177.456 321.121 177.448 322.895V323.984C177.448 325.773 177.788 327.125 178.468 328.039C179.147 328.953 180.144 329.41 181.456 329.41C182.776 329.41 183.718 329.129 184.28 328.566V325.625H181.081V323.035H187.796V329.844ZM194.394 332H190.878V314.938H194.394V332ZM210.155 317.785H204.929V332H201.413V317.785H196.257V314.938H210.155V317.785ZM226.058 332H222.542V324.688H215.687V332H212.171V314.938H215.687V321.852H222.542V314.938H226.058V332ZM242.054 314.938V326.176C242.054 328.043 241.468 329.52 240.296 330.605C239.132 331.691 237.538 332.234 235.515 332.234C233.522 332.234 231.94 331.707 230.769 330.652C229.597 329.598 228.999 328.148 228.976 326.305V314.938H232.491V326.199C232.491 327.316 232.757 328.133 233.288 328.648C233.827 329.156 234.569 329.41 235.515 329.41C237.491 329.41 238.495 328.371 238.526 326.293V314.938H242.054ZM244.937 332V314.938H250.913C252.983 314.938 254.554 315.336 255.624 316.133C256.694 316.922 257.229 318.082 257.229 319.613C257.229 320.449 257.015 321.188 256.585 321.828C256.155 322.461 255.558 322.926 254.792 323.223C255.667 323.441 256.354 323.883 256.854 324.547C257.362 325.211 257.616 326.023 257.616 326.984C257.616 328.625 257.093 329.867 256.046 330.711C254.999 331.555 253.507 331.984 251.569 332H244.937ZM248.452 324.57V329.176H251.464C252.292 329.176 252.937 328.98 253.397 328.59C253.866 328.191 254.101 327.645 254.101 326.949C254.101 325.387 253.292 324.594 251.675 324.57H248.452ZM248.452 322.086H251.054C252.827 322.055 253.714 321.348 253.714 319.965C253.714 319.191 253.487 318.637 253.034 318.301C252.589 317.957 251.882 317.785 250.913 317.785H248.452V322.086Z" fill="#C4174F"/>
<path d="M420.892 209.863C420.513 207.511 418.115 206.537 416.445 208.224L400.894 223.886L388.93 200.949C387.812 198.804 385.096 198.579 383.991 200.73L377.21 213.746L360.874 182.595C359.526 180.043 356.102 180.693 355.659 183.551L340 284.509L375.748 216.577L387.337 238.16L340.013 285.201L382.026 308.875C383.336 309.612 384.812 310 386.313 310C387.813 310 389.289 309.614 390.6 308.877L433 285.038L420.892 209.863Z" fill="#E55175"/>
<path d="M342.789 325.027H336.039V332H332.523V314.938H343.633V317.785H336.039V322.191H342.789V325.027ZM349.41 332H345.895V314.938H349.41V332ZM358.996 325.754H356.195V332H352.68V314.938H359.02C361.035 314.938 362.59 315.387 363.684 316.285C364.777 317.184 365.324 318.453 365.324 320.094C365.324 321.258 365.07 322.23 364.562 323.012C364.062 323.785 363.301 324.402 362.277 324.863L365.969 331.836V332H362.195L358.996 325.754ZM356.195 322.906H359.031C359.914 322.906 360.598 322.684 361.082 322.238C361.566 321.785 361.809 321.164 361.809 320.375C361.809 319.57 361.578 318.938 361.117 318.477C360.664 318.016 359.965 317.785 359.02 317.785H356.195V322.906ZM378.273 324.605H371.523V329.176H379.445V332H368.008V314.938H379.422V317.785H371.523V321.852H378.273V324.605ZM381.508 332V314.938H387.484C389.555 314.938 391.125 315.336 392.195 316.133C393.266 316.922 393.801 318.082 393.801 319.613C393.801 320.449 393.586 321.188 393.156 321.828C392.727 322.461 392.129 322.926 391.363 323.223C392.238 323.441 392.926 323.883 393.426 324.547C393.934 325.211 394.188 326.023 394.188 326.984C394.188 328.625 393.664 329.867 392.617 330.711C391.57 331.555 390.078 331.984 388.141 332H381.508ZM385.023 324.57V329.176H388.035C388.863 329.176 389.508 328.98 389.969 328.59C390.438 328.191 390.672 327.645 390.672 326.949C390.672 325.387 389.863 324.594 388.246 324.57H385.023ZM385.023 322.086H387.625C389.398 322.055 390.285 321.348 390.285 319.965C390.285 319.191 390.059 318.637 389.605 318.301C389.16 317.957 388.453 317.785 387.484 317.785H385.023V322.086ZM406.469 328.484H400.305L399.133 332H395.395L401.746 314.938H405.004L411.391 332H407.652L406.469 328.484ZM401.254 325.637H405.52L403.375 319.25L401.254 325.637ZM421.832 327.523C421.832 326.859 421.598 326.352 421.129 326C420.66 325.641 419.816 325.266 418.598 324.875C417.379 324.477 416.414 324.086 415.703 323.703C413.766 322.656 412.797 321.246 412.797 319.473C412.797 318.551 413.055 317.73 413.57 317.012C414.094 316.285 414.84 315.719 415.809 315.312C416.785 314.906 417.879 314.703 419.09 314.703C420.309 314.703 421.395 314.926 422.348 315.371C423.301 315.809 424.039 316.43 424.562 317.234C425.094 318.039 425.359 318.953 425.359 319.977H421.844C421.844 319.195 421.598 318.59 421.105 318.16C420.613 317.723 419.922 317.504 419.031 317.504C418.172 317.504 417.504 317.688 417.027 318.055C416.551 318.414 416.312 318.891 416.312 319.484C416.312 320.039 416.59 320.504 417.145 320.879C417.707 321.254 418.531 321.605 419.617 321.934C421.617 322.535 423.074 323.281 423.988 324.172C424.902 325.062 425.359 326.172 425.359 327.5C425.359 328.977 424.801 330.137 423.684 330.98C422.566 331.816 421.062 332.234 419.172 332.234C417.859 332.234 416.664 331.996 415.586 331.52C414.508 331.035 413.684 330.375 413.113 329.539C412.551 328.703 412.27 327.734 412.27 326.633H415.797C415.797 328.516 416.922 329.457 419.172 329.457C420.008 329.457 420.66 329.289 421.129 328.953C421.598 328.609 421.832 328.133 421.832 327.523ZM438.016 324.605H431.266V329.176H439.188V332H427.75V314.938H439.164V317.785H431.266V321.852H438.016V324.605Z" fill="#C4174F"/>
<path d="M597.5 186H504.5C500.389 186 496.447 187.633 493.54 190.54C490.633 193.447 489 197.389 489 201.5V294.5C489 298.611 490.633 302.553 493.54 305.46C496.447 308.367 500.389 310 504.5 310H597.5C601.611 310 605.553 308.367 608.46 305.46C611.367 302.553 613 298.611 613 294.5V201.5C613 197.389 611.367 193.447 608.46 190.54C605.553 187.633 601.611 186 597.5 186ZM542.94 279.93C542.94 281.903 542.156 283.796 540.761 285.191C539.366 286.586 537.473 287.37 535.5 287.37H512.56C510.587 287.37 508.694 286.586 507.299 285.191C505.904 283.796 505.12 281.903 505.12 279.93V209.56C505.12 205.447 508.447 202.12 512.56 202.12H535.5C539.606 202.12 542.94 205.447 542.94 209.56V279.93ZM596.88 248.93C596.88 250.903 596.096 252.796 594.701 254.191C593.306 255.586 591.413 256.37 589.44 256.37H566.5C564.527 256.37 562.634 255.586 561.239 254.191C559.844 252.796 559.06 250.903 559.06 248.93V209.56C559.06 205.447 562.394 202.12 566.5 202.12H589.44C593.553 202.12 596.88 205.447 596.88 209.56V248.93Z" fill="#E55175"/>
<path d="M522.367 317.785H517.141V332H513.625V317.785H508.469V314.938H522.367V317.785ZM530.699 325.754H527.898V332H524.383V314.938H530.723C532.738 314.938 534.293 315.387 535.387 316.285C536.48 317.184 537.027 318.453 537.027 320.094C537.027 321.258 536.773 322.23 536.266 323.012C535.766 323.785 535.004 324.402 533.98 324.863L537.672 331.836V332H533.898L530.699 325.754ZM527.898 322.906H530.734C531.617 322.906 532.301 322.684 532.785 322.238C533.27 321.785 533.512 321.164 533.512 320.375C533.512 319.57 533.281 318.938 532.82 318.477C532.367 318.016 531.668 317.785 530.723 317.785H527.898V322.906ZM549.977 324.605H543.227V329.176H551.148V332H539.711V314.938H551.125V317.785H543.227V321.852H549.977V324.605ZM556.727 329.176H564.191V332H553.211V314.938H556.727V329.176ZM569.734 329.176H577.199V332H566.219V314.938H569.734V329.176ZM592.492 323.855C592.492 325.535 592.195 327.008 591.602 328.273C591.008 329.539 590.156 330.516 589.047 331.203C587.945 331.891 586.68 332.234 585.25 332.234C583.836 332.234 582.574 331.895 581.465 331.215C580.355 330.535 579.496 329.566 578.887 328.309C578.277 327.043 577.969 325.59 577.961 323.949V323.105C577.961 321.426 578.262 319.949 578.863 318.676C579.473 317.395 580.328 316.414 581.43 315.734C582.539 315.047 583.805 314.703 585.227 314.703C586.648 314.703 587.91 315.047 589.012 315.734C590.121 316.414 590.977 317.395 591.578 318.676C592.188 319.949 592.492 321.422 592.492 323.094V323.855ZM588.93 323.082C588.93 321.293 588.609 319.934 587.969 319.004C587.328 318.074 586.414 317.609 585.227 317.609C584.047 317.609 583.137 318.07 582.496 318.992C581.855 319.906 581.531 321.25 581.523 323.023V323.855C581.523 325.598 581.844 326.949 582.484 327.91C583.125 328.871 584.047 329.352 585.25 329.352C586.43 329.352 587.336 328.891 587.969 327.969C588.602 327.039 588.922 325.688 588.93 323.914V323.082Z" fill="#C4174F"/>
<path d="M164 0H269.401L259.816 108.23L216.589 120.461L173.598 108.223L164 0ZM249.779 22.1468L183.629 22.1333L184.695 35.289L235.516 35.3025L234.241 48.9375H200.909L202.117 61.8503H233.147L231.311 79.5353L216.704 83.5718L201.874 79.5015L200.922 68.9108H187.828L189.286 88.263L216.704 96.8018L243.67 89.127L249.779 22.1468Z" fill="#E55175"/>
<path d="M206.918 138.316C206.785 140.152 206.105 141.598 204.879 142.652C203.66 143.707 202.051 144.234 200.051 144.234C197.863 144.234 196.141 143.5 194.883 142.031C193.633 140.555 193.008 138.531 193.008 135.961V134.918C193.008 133.277 193.297 131.832 193.875 130.582C194.453 129.332 195.277 128.375 196.348 127.711C197.426 127.039 198.676 126.703 200.098 126.703C202.066 126.703 203.652 127.23 204.855 128.285C206.059 129.34 206.754 130.82 206.941 132.727H203.426C203.34 131.625 203.031 130.828 202.5 130.336C201.977 129.836 201.176 129.586 200.098 129.586C198.926 129.586 198.047 130.008 197.461 130.852C196.883 131.688 196.586 132.988 196.57 134.754V136.043C196.57 137.887 196.848 139.234 197.402 140.086C197.965 140.938 198.848 141.363 200.051 141.363C201.137 141.363 201.945 141.117 202.477 140.625C203.016 140.125 203.324 139.355 203.402 138.316H206.918ZM218.074 139.523C218.074 138.859 217.84 138.352 217.371 138C216.902 137.641 216.059 137.266 214.84 136.875C213.621 136.477 212.656 136.086 211.945 135.703C210.008 134.656 209.039 133.246 209.039 131.473C209.039 130.551 209.297 129.73 209.812 129.012C210.336 128.285 211.082 127.719 212.051 127.312C213.027 126.906 214.121 126.703 215.332 126.703C216.551 126.703 217.637 126.926 218.59 127.371C219.543 127.809 220.281 128.43 220.805 129.234C221.336 130.039 221.602 130.953 221.602 131.977H218.086C218.086 131.195 217.84 130.59 217.348 130.16C216.855 129.723 216.164 129.504 215.273 129.504C214.414 129.504 213.746 129.688 213.27 130.055C212.793 130.414 212.555 130.891 212.555 131.484C212.555 132.039 212.832 132.504 213.387 132.879C213.949 133.254 214.773 133.605 215.859 133.934C217.859 134.535 219.316 135.281 220.23 136.172C221.145 137.062 221.602 138.172 221.602 139.5C221.602 140.977 221.043 142.137 219.926 142.98C218.809 143.816 217.305 144.234 215.414 144.234C214.102 144.234 212.906 143.996 211.828 143.52C210.75 143.035 209.926 142.375 209.355 141.539C208.793 140.703 208.512 139.734 208.512 138.633H212.039C212.039 140.516 213.164 141.457 215.414 141.457C216.25 141.457 216.902 141.289 217.371 140.953C217.84 140.609 218.074 140.133 218.074 139.523ZM232.84 139.523C232.84 138.859 232.605 138.352 232.137 138C231.668 137.641 230.824 137.266 229.605 136.875C228.387 136.477 227.422 136.086 226.711 135.703C224.773 134.656 223.805 133.246 223.805 131.473C223.805 130.551 224.062 129.73 224.578 129.012C225.102 128.285 225.848 127.719 226.816 127.312C227.793 126.906 228.887 126.703 230.098 126.703C231.316 126.703 232.402 126.926 233.355 127.371C234.309 127.809 235.047 128.43 235.57 129.234C236.102 130.039 236.367 130.953 236.367 131.977H232.852C232.852 131.195 232.605 130.59 232.113 130.16C231.621 129.723 230.93 129.504 230.039 129.504C229.18 129.504 228.512 129.688 228.035 130.055C227.559 130.414 227.32 130.891 227.32 131.484C227.32 132.039 227.598 132.504 228.152 132.879C228.715 133.254 229.539 133.605 230.625 133.934C232.625 134.535 234.082 135.281 234.996 136.172C235.91 137.062 236.367 138.172 236.367 139.5C236.367 140.977 235.809 142.137 234.691 142.98C233.574 143.816 232.07 144.234 230.18 144.234C228.867 144.234 227.672 143.996 226.594 143.52C225.516 143.035 224.691 142.375 224.121 141.539C223.559 140.703 223.277 139.734 223.277 138.633H226.805C226.805 140.516 227.93 141.457 230.18 141.457C231.016 141.457 231.668 141.289 232.137 140.953C232.605 140.609 232.84 140.133 232.84 139.523Z" fill="#C4174F"/>
<path d="M328 0H446V118H328V0ZM436.339 89.8644C435.476 84.4659 431.958 79.9524 421.57 75.7302C417.96 74.0413 413.926 72.8503 412.735 70.1215C412.293 68.5064 412.215 67.6251 412.503 66.6626C413.251 63.4729 416.998 62.5326 419.955 63.4176C421.876 64.0113 423.643 65.4716 424.756 67.8353C429.845 64.5128 429.845 64.5128 433.381 62.304C432.058 60.2501 431.405 59.3466 430.501 58.4837C427.408 55.0064 423.281 53.2401 416.577 53.395L413.1 53.8375C409.778 54.6451 406.61 56.4114 404.689 58.7751C399.099 65.1139 400.714 76.1764 407.491 80.7673C414.195 85.7786 424.008 86.8738 425.276 91.6012C426.449 97.3647 420.995 99.2085 415.597 98.5337C411.621 97.6487 409.413 95.6537 406.971 91.9662L397.981 97.1324C398.999 99.4961 400.19 100.514 401.956 102.586C410.504 111.211 431.899 110.769 435.738 97.6487C435.87 97.2062 436.91 94.1714 436.103 89.5436L436.339 89.8644ZM392.166 54.2357H381.122C381.122 63.7606 381.063 73.2301 381.063 82.777C381.063 88.8282 381.369 94.3963 380.392 96.1073C378.758 99.4888 374.592 99.0647 372.689 98.471C370.749 97.5123 369.75 96.1848 368.618 94.2636C368.29 93.7436 368.061 93.3048 367.984 93.3048L359.016 98.8361C360.513 101.93 362.703 104.6 365.528 106.288C369.735 108.803 375.381 109.611 381.295 108.287C385.138 107.174 388.46 104.887 390.186 101.355C392.701 96.7821 392.163 91.1771 392.144 84.8936C392.203 74.7899 392.144 64.6898 392.144 54.5086L392.166 54.2357Z" fill="#E55175"/>
<path d="M320.402 126.938H323.918V138.75C323.918 139.836 323.676 140.797 323.191 141.633C322.715 142.461 322.039 143.102 321.164 143.555C320.289 144.008 319.301 144.234 318.199 144.234C316.395 144.234 314.988 143.777 313.98 142.863C312.973 141.941 312.469 140.641 312.469 138.961H316.008C316.008 139.797 316.184 140.414 316.535 140.812C316.887 141.211 317.441 141.41 318.199 141.41C318.871 141.41 319.406 141.18 319.805 140.719C320.203 140.258 320.402 139.602 320.402 138.75V126.938ZM336.305 140.484H330.141L328.969 144H325.23L331.582 126.938H334.84L341.227 144H337.488L336.305 140.484ZM331.09 137.637H335.355L333.211 131.25L331.09 137.637ZM348.211 139.77L352.078 126.938H355.992L350.051 144H346.383L340.465 126.938H344.367L348.211 139.77ZM366.352 140.484H360.188L359.016 144H355.277L361.629 126.938H364.887L371.273 144H367.535L366.352 140.484ZM361.137 137.637H365.402L363.258 131.25L361.137 137.637ZM381.715 139.523C381.715 138.859 381.48 138.352 381.012 138C380.543 137.641 379.699 137.266 378.48 136.875C377.262 136.477 376.297 136.086 375.586 135.703C373.648 134.656 372.68 133.246 372.68 131.473C372.68 130.551 372.938 129.73 373.453 129.012C373.977 128.285 374.723 127.719 375.691 127.312C376.668 126.906 377.762 126.703 378.973 126.703C380.191 126.703 381.277 126.926 382.23 127.371C383.184 127.809 383.922 128.43 384.445 129.234C384.977 130.039 385.242 130.953 385.242 131.977H381.727C381.727 131.195 381.48 130.59 380.988 130.16C380.496 129.723 379.805 129.504 378.914 129.504C378.055 129.504 377.387 129.688 376.91 130.055C376.434 130.414 376.195 130.891 376.195 131.484C376.195 132.039 376.473 132.504 377.027 132.879C377.59 133.254 378.414 133.605 379.5 133.934C381.5 134.535 382.957 135.281 383.871 136.172C384.785 137.062 385.242 138.172 385.242 139.5C385.242 140.977 384.684 142.137 383.566 142.98C382.449 143.816 380.945 144.234 379.055 144.234C377.742 144.234 376.547 143.996 375.469 143.52C374.391 143.035 373.566 142.375 372.996 141.539C372.434 140.703 372.152 139.734 372.152 138.633H375.68C375.68 140.516 376.805 141.457 379.055 141.457C379.891 141.457 380.543 141.289 381.012 140.953C381.48 140.609 381.715 140.133 381.715 139.523ZM401.027 138.316C400.895 140.152 400.215 141.598 398.988 142.652C397.77 143.707 396.16 144.234 394.16 144.234C391.973 144.234 390.25 143.5 388.992 142.031C387.742 140.555 387.117 138.531 387.117 135.961V134.918C387.117 133.277 387.406 131.832 387.984 130.582C388.562 129.332 389.387 128.375 390.457 127.711C391.535 127.039 392.785 126.703 394.207 126.703C396.176 126.703 397.762 127.23 398.965 128.285C400.168 129.34 400.863 130.82 401.051 132.727H397.535C397.449 131.625 397.141 130.828 396.609 130.336C396.086 129.836 395.285 129.586 394.207 129.586C393.035 129.586 392.156 130.008 391.57 130.852C390.992 131.688 390.695 132.988 390.68 134.754V136.043C390.68 137.887 390.957 139.234 391.512 140.086C392.074 140.938 392.957 141.363 394.16 141.363C395.246 141.363 396.055 141.117 396.586 140.625C397.125 140.125 397.434 139.355 397.512 138.316H401.027ZM409.652 137.754H406.852V144H403.336V126.938H409.676C411.691 126.938 413.246 127.387 414.34 128.285C415.434 129.184 415.98 130.453 415.98 132.094C415.98 133.258 415.727 134.23 415.219 135.012C414.719 135.785 413.957 136.402 412.934 136.863L416.625 143.836V144H412.852L409.652 137.754ZM406.852 134.906H409.688C410.57 134.906 411.254 134.684 411.738 134.238C412.223 133.785 412.465 133.164 412.465 132.375C412.465 131.57 412.234 130.938 411.773 130.477C411.32 130.016 410.621 129.785 409.676 129.785H406.852V134.906ZM422.402 144H418.887V126.938H422.402V144ZM429.188 137.988V144H425.672V126.938H432.328C433.609 126.938 434.734 127.172 435.703 127.641C436.68 128.109 437.43 128.777 437.953 129.645C438.477 130.504 438.738 131.484 438.738 132.586C438.738 134.258 438.164 135.578 437.016 136.547C435.875 137.508 434.293 137.988 432.27 137.988H429.188ZM429.188 135.141H432.328C433.258 135.141 433.965 134.922 434.449 134.484C434.941 134.047 435.188 133.422 435.188 132.609C435.188 131.773 434.941 131.098 434.449 130.582C433.957 130.066 433.277 129.801 432.41 129.785H429.188V135.141ZM454.008 129.785H448.781V144H445.266V129.785H440.109V126.938H454.008V129.785Z" fill="#C4174F"/>
</svg>
