<svg width="74" height="24" viewBox="0 0 74 24" fill="none" xmlns="http://www.w3.org/2000/svg">
<path d="M7.14511 19.1947C5.9175 19.1947 4.83282 18.9188 3.8911 18.3671C2.96618 17.8154 2.25148 17.0323 1.74698 16.0178C1.24248 15.0033 0.990234 13.8198 0.990234 12.4672C0.990234 11.1146 1.25089 9.92214 1.77221 8.88988C2.31034 7.83983 3.05867 7.03004 4.01722 6.46051C4.97577 5.89099 6.07725 5.60623 7.32168 5.60623C7.97753 5.60623 8.63337 5.70412 9.28922 5.89989C9.96188 6.09566 10.5505 6.36263 11.055 6.70078C11.5931 7.07453 11.8622 7.54617 11.8622 8.11569C11.8622 8.50723 11.7697 8.82759 11.5847 9.07676C11.4165 9.30812 11.1895 9.42381 10.9036 9.42381C10.7186 9.42381 10.5252 9.37931 10.3234 9.29033C10.1216 9.20134 9.91984 9.09455 9.71804 8.96997C9.34808 8.7386 8.99493 8.56063 8.6586 8.43604C8.32227 8.29366 7.93549 8.22247 7.49825 8.22247C6.45563 8.22247 5.64843 8.58732 5.07667 9.31702C4.52172 10.0289 4.24424 11.0612 4.24424 12.4138C4.24424 13.7486 4.52172 14.7809 5.07667 15.5106C5.64843 16.2225 6.45563 16.5784 7.49825 16.5784C7.91867 16.5784 8.28863 16.5161 8.60815 16.3916C8.94448 16.2492 9.31445 16.0623 9.71804 15.8309C9.97029 15.6708 10.1889 15.5551 10.3739 15.4839C10.5589 15.3949 10.7439 15.3504 10.9288 15.3504C11.1979 15.3504 11.4249 15.475 11.6099 15.7241C11.7949 15.9733 11.8874 16.2848 11.8874 16.6585C11.8874 16.9611 11.8201 17.228 11.6856 17.4594C11.5679 17.673 11.3661 17.8688 11.0802 18.0467C10.5589 18.4027 9.95348 18.6874 9.264 18.901C8.57452 19.0968 7.86822 19.1947 7.14511 19.1947Z" fill="#C4174F"/>
<path d="M25.9447 5.65962C26.4156 5.65962 26.794 5.80201 27.0799 6.08677C27.3657 6.37153 27.5087 6.75417 27.5087 7.23471V17.7798C27.5087 19.8265 26.9705 21.3749 25.8943 22.4249C24.818 23.475 23.2289 24 21.1268 24C19.2938 24 17.7635 23.6352 16.5359 22.9055C15.9136 22.5139 15.6025 22.0423 15.6025 21.4906C15.6025 21.099 15.6866 20.7875 15.8548 20.5562C16.0398 20.3248 16.2752 20.2091 16.5611 20.2091C16.7124 20.2091 16.8974 20.2447 17.116 20.3159C17.3346 20.4049 17.5617 20.5028 17.7971 20.6096C18.4025 20.8765 18.9406 21.0812 19.4115 21.2236C19.8992 21.366 20.4541 21.4372 21.0763 21.4372C23.2793 21.4372 24.3808 20.2981 24.3808 18.02V16.3115C24.0108 17.0412 23.4727 17.6107 22.7664 18.02C22.0601 18.4116 21.2529 18.6073 20.3448 18.6073C19.2686 18.6073 18.31 18.3404 17.4692 17.8065C16.6452 17.2547 15.9977 16.4894 15.5269 15.5106C15.056 14.5317 14.8206 13.4016 14.8206 12.1201C14.8206 10.8387 15.0476 9.70857 15.5016 8.7297C15.9725 7.73304 16.6283 6.96774 17.4692 6.43382C18.31 5.88209 19.2686 5.60623 20.3448 5.60623C21.2529 5.60623 22.0601 5.8109 22.7664 6.22025C23.4727 6.61179 24.0108 7.17242 24.3808 7.90212V7.20801C24.3808 6.74528 24.5237 6.37153 24.8096 6.08677C25.0955 5.80201 25.4739 5.65962 25.9447 5.65962ZM21.1772 16.0178C22.1862 16.0178 22.9682 15.6708 23.5231 14.9766C24.0949 14.2825 24.3808 13.3304 24.3808 12.1201C24.3808 10.8921 24.0949 9.93104 23.5231 9.23693C22.9682 8.54283 22.1862 8.19578 21.1772 8.19578C20.1851 8.19578 19.4031 8.54283 18.8313 9.23693C18.2596 9.93104 17.9737 10.8921 17.9737 12.1201C17.9737 13.3304 18.2596 14.2825 18.8313 14.9766C19.4031 15.6708 20.1851 16.0178 21.1772 16.0178Z" fill="#C4174F"/>
<path d="M39.5023 5.60623C42.3948 5.60623 43.841 7.39489 43.841 10.9722V17.5395C43.841 18.0378 43.6981 18.4294 43.4122 18.7141C43.1431 18.9989 42.7647 19.1413 42.2771 19.1413C41.7894 19.1413 41.4026 18.9989 41.1167 18.7141C40.8308 18.4294 40.6879 18.0378 40.6879 17.5395V10.9722C40.6879 10.0289 40.5029 9.34372 40.1329 8.91658C39.7798 8.47164 39.2164 8.24917 38.4429 8.24917C37.5348 8.24917 36.8033 8.55173 36.2483 9.15684C35.7102 9.76196 35.4411 10.5717 35.4411 11.5862V17.5395C35.4411 18.0378 35.2982 18.4294 35.0123 18.7141C34.7264 18.9989 34.3396 19.1413 33.8519 19.1413C33.3643 19.1413 32.9775 18.9989 32.6916 18.7141C32.4225 18.4294 32.288 18.0378 32.288 17.5395V1.57508C32.288 1.11235 32.4309 0.738598 32.7168 0.453838C33.0195 0.169076 33.4063 0.0266959 33.8772 0.0266959C34.348 0.0266959 34.7264 0.160177 35.0123 0.427141C35.2982 0.694105 35.4411 1.05895 35.4411 1.52169V7.74194C35.8615 7.04783 36.4165 6.52281 37.106 6.16685C37.8123 5.79311 38.611 5.60623 39.5023 5.60623Z" fill="#C4174F"/>
<path d="M52.1895 22.8788C50.3733 19.515 49.4652 15.8754 49.4652 11.96C49.4652 7.9911 50.3733 4.3426 52.1895 1.01446C52.3913 0.676307 52.6183 0.427141 52.8705 0.266963C53.1396 0.0889875 53.4087 0 53.6777 0C53.9636 0 54.199 0.0978866 54.384 0.293659C54.5858 0.471635 54.6867 0.7208 54.6867 1.04116C54.6867 1.29032 54.6447 1.51279 54.5606 1.70857C53.3162 4.94772 52.694 8.36485 52.694 11.96C52.694 13.7575 52.8453 15.4928 53.148 17.1657C53.4507 18.8209 53.9216 20.485 54.5606 22.158C54.6447 22.3537 54.6867 22.5762 54.6867 22.8254C54.6867 23.1457 54.5858 23.3949 54.384 23.5729C54.199 23.7686 53.9636 23.8665 53.6777 23.8665C53.4087 23.8665 53.1396 23.7864 52.8705 23.6263C52.6015 23.4661 52.3744 23.2169 52.1895 22.8788Z" fill="#C4174F"/>
<path d="M61.9162 22.8788C61.7312 23.2169 61.5042 23.4661 61.2351 23.6263C60.9661 23.7864 60.697 23.8665 60.4279 23.8665C60.1421 23.8665 59.8982 23.7686 59.6964 23.5729C59.5114 23.3949 59.4189 23.1457 59.4189 22.8254C59.4189 22.5762 59.461 22.3537 59.5451 22.158C60.1841 20.485 60.655 18.8209 60.9577 17.1657C61.2604 15.4928 61.4117 13.7575 61.4117 11.96C61.4117 8.36485 60.7895 4.94772 59.5451 1.70857C59.461 1.51279 59.4189 1.29032 59.4189 1.04116C59.4189 0.7208 59.5114 0.471635 59.6964 0.293659C59.8982 0.0978866 60.1421 0 60.4279 0C60.697 0 60.9577 0.0889875 61.2099 0.266963C61.479 0.427141 61.7144 0.676307 61.9162 1.01446C63.7324 4.3426 64.6405 7.9911 64.6405 11.96C64.6405 15.8754 63.7324 19.515 61.9162 22.8788Z" fill="#C4174F"/>
<path d="M71.8186 9.63738C71.2804 9.63738 70.8348 9.4505 70.4816 9.07676C70.1285 8.68521 69.9519 8.20468 69.9519 7.63515C69.9519 7.06563 70.1285 6.594 70.4816 6.22025C70.8348 5.8465 71.2804 5.65962 71.8186 5.65962C72.3567 5.65962 72.8023 5.8465 73.1555 6.22025C73.5086 6.594 73.6852 7.06563 73.6852 7.63515C73.6852 8.20468 73.5086 8.68521 73.1555 9.07676C72.8023 9.4505 72.3567 9.63738 71.8186 9.63738ZM71.7681 15.1368C72.3399 15.1368 72.8023 15.3593 73.1555 15.8042C73.5086 16.2492 73.6852 16.8988 73.6852 17.7531C73.6852 19.4438 73.1302 20.9032 72.0204 22.1313C71.8017 22.3626 71.5663 22.4783 71.3141 22.4783C71.0618 22.4783 70.8432 22.3893 70.6582 22.2114C70.4732 22.0334 70.3807 21.8198 70.3807 21.5706C70.3807 21.3571 70.4648 21.1524 70.633 20.9566C71.1375 20.3871 71.4654 19.7464 71.6168 19.0345C71.1291 18.9811 70.7255 18.7853 70.406 18.4472C70.1033 18.0912 69.9519 17.6552 69.9519 17.139C69.9519 16.5695 70.1201 16.0979 70.4564 15.7241C70.8096 15.3326 71.2468 15.1368 71.7681 15.1368Z" fill="#C4174F"/>
</svg>
